<svg width="2000px" height="686px"
 viewBox="0.00 0.00 1620.00 556.00" xmlns="http://www.w3.org/2000/svg" xmlns:xlink="http://www.w3.org/1999/xlink">
<g id="graph0" class="graph" transform="scale(1.0 1.0) rotate(0) translate(4 552.48)">
<title>ContextMapGraph</title>
<polygon fill="white" stroke="none" points="-4,4 -4,-552.48 1615.53,-552.48 1615.53,4 -4,4"/>
<!-- AgendamentoContext -->
<g id="node1" class="node">
<title>AgendamentoContext</title>
<polygon fill="none" stroke="black" stroke-width="2" points="216.28,-384.26 209.2,-382.42 202.41,-380.5 195.93,-378.49 189.8,-376.42 184.04,-374.29 178.68,-372.11 173.73,-369.87 169.22,-367.6 165.17,-365.3 161.59,-362.98 158.49,-360.64 155.9,-358.29 153.81,-355.93 152.23,-353.59 151.18,-351.25 150.64,-348.93 150.63,-346.63 151.13,-344.37 152.14,-342.13 153.66,-339.94 155.67,-337.79 158.16,-335.68 161.11,-333.63 164.52,-331.64 168.35,-329.7 172.59,-327.83 177.23,-326.02 182.23,-324.28 187.57,-322.61 193.23,-321.02 199.17,-319.49 205.39,-318.05 211.83,-316.68 218.49,-315.4 225.33,-314.2 232.33,-313.08 239.46,-312.04 246.68,-311.09 253.98,-310.23 261.34,-309.46 268.71,-308.77 276.1,-308.18 283.46,-307.68 290.78,-307.27 298.03,-306.96 305.21,-306.74 312.29,-306.62 319.26,-306.6 326.1,-306.67 332.8,-306.85 339.34,-307.12 345.72,-307.49 351.92,-307.97 357.94,-308.55 363.77,-309.23 369.4,-310.02 374.83,-310.91 380.05,-311.9 385.06,-312.99 389.86,-314.19 394.44,-315.48 398.8,-316.88 402.94,-318.37 406.86,-319.96 410.55,-321.64 414.01,-323.41 417.25,-325.27 420.26,-327.21 423.03,-329.23 425.58,-331.33 427.88,-333.5 429.95,-335.73 431.77,-338.03 433.34,-340.37 434.66,-342.77 435.73,-345.2 436.53,-347.67 437.07,-350.17 437.33,-352.68 437.32,-355.2 437.02,-357.73 436.43,-360.24 435.55,-362.74 434.35,-365.22 432.86,-367.67 431.04,-370.07 428.91,-372.43 426.45,-374.72 423.67,-376.95 420.55,-379.1 417.1,-381.16 413.32,-383.14 409.21,-385.01 404.76,-386.78 399.99,-388.44 394.89,-389.97 389.47,-391.38 383.75,-392.65 377.73,-393.79 371.41,-394.79 364.82,-395.65 357.98,-396.36 350.88,-396.92 343.56,-397.33 336.04,-397.58 328.33,-397.68 320.46,-397.63 312.45,-397.43 304.33,-397.07 296.13,-396.57 287.88,-395.93 279.6,-395.14 271.33,-394.21 263.1,-393.15 254.94,-391.95 246.87,-390.64 238.95,-389.21 231.18,-387.66 223.62,-386.01 216.28,-384.26"/>
<text xml:space="preserve" text-anchor="middle" x="304.98" y="-344.56" font-family="sans-serif" font-size="16.00">AgendamentoContext</text>
</g>
<!-- ClientesContext -->
<g id="node2" class="node">
<title>ClientesContext</title>
<polygon fill="none" stroke="black" stroke-width="2" points="217.68,-197.76 217.96,-200.7 217.93,-203.62 217.6,-206.51 216.96,-209.36 216.03,-212.17 214.79,-214.91 213.25,-217.58 211.42,-220.17 209.3,-222.67 206.9,-225.07 204.21,-227.36 201.25,-229.54 198.03,-231.59 194.56,-233.52 190.83,-235.31 186.87,-236.96 182.69,-238.47 178.29,-239.83 173.7,-241.05 168.91,-242.12 163.96,-243.04 158.84,-243.81 153.58,-244.44 148.19,-244.92 142.69,-245.25 137.1,-245.44 131.42,-245.5 125.68,-245.42 119.89,-245.21 114.07,-244.88 108.24,-244.43 102.42,-243.86 96.62,-243.18 90.86,-242.4 85.15,-241.52 79.52,-240.54 73.97,-239.48 68.53,-238.34 63.21,-237.13 58.03,-235.84 52.99,-234.49 48.13,-233.07 43.44,-231.61 38.94,-230.09 34.64,-228.52 30.56,-226.91 26.7,-225.26 23.09,-223.58 19.71,-221.86 16.59,-220.11 13.74,-218.33 11.15,-216.53 8.84,-214.7 6.81,-212.85 5.06,-210.98 3.61,-209.1 2.44,-207.19 1.57,-205.26 0.99,-203.32 0.71,-201.37 0.73,-199.4 1.03,-197.42 1.63,-195.43 2.52,-193.43 3.7,-191.43 5.15,-189.42 6.88,-187.41 8.89,-185.4 11.15,-183.4 13.68,-181.4 16.46,-179.42 19.47,-177.45 22.73,-175.5 26.2,-173.57 29.9,-171.68 33.79,-169.82 37.89,-168.01 42.16,-166.24 46.61,-164.53 51.22,-162.88 55.98,-161.29 60.88,-159.78 65.9,-158.36 71.04,-157.02 76.27,-155.79 81.59,-154.65 86.98,-153.63 92.43,-152.72 97.92,-151.94 103.44,-151.29 108.98,-150.78 114.53,-150.41 120.06,-150.18 125.57,-150.1 131.04,-150.18 136.45,-150.42 141.8,-150.82 147.07,-151.38 152.24,-152.1 157.31,-152.99 162.25,-154.03 167.06,-155.24 171.72,-156.6 176.22,-158.12 180.54,-159.79 184.69,-161.61 188.63,-163.56 192.37,-165.65 195.89,-167.86 199.18,-170.19 202.23,-172.63 205.04,-175.17 207.59,-177.8 209.87,-180.5 211.89,-183.28 213.62,-186.11 215.08,-188.98 216.24,-191.89 217.11,-194.82 217.68,-197.76"/>
<text xml:space="preserve" text-anchor="middle" x="108.98" y="-193.75" font-family="sans-serif" font-size="16.00">ClientesContext</text>
</g>
<!-- AgendamentoContext&#45;&gt;ClientesContext -->
<g id="edge1" class="edge">
<title>AgendamentoContext&#45;&gt;ClientesContext</title>
<path fill="none" stroke="black" stroke-width="2" d="M215.56,-315.67C197.01,-306.41 178.42,-295.12 162.98,-281.73 151.39,-271.69 141.28,-258.59 133.04,-245.82"/>
<text xml:space="preserve" text-anchor="middle" x="237.98" y="-270.33" font-family="sans-serif" font-size="12.00"> &#160;&#160;&#160;&#160;&#160;&#160;&#160;&#160;&#160;&#160;&#160;&#160;&#160;&#160;&#160;&#160;&#160;&#160;&#160;&#160;&#160;&#160;&#160;&#160;&#160;&#160;&#160;&#160;&#160;&#160;&#160;&#160;&#160;&#160;&#160;&#160;&#160;&#160;&#160;</text>
<polygon fill="white" stroke="none" points="126.91,-235.94 126.91,-255.69 139.16,-255.69 139.16,-235.94 126.91,-235.94"/>
<text xml:space="preserve" text-anchor="start" x="128.91" y="-242.29" font-family="sans-serif" font-size="12.00">D</text>
<polygon fill="white" stroke="none" points="184.06,-304.8 184.06,-326.55 197.56,-326.55 197.56,-304.8 184.06,-304.8"/>
<polyline fill="none" stroke="black" points="197.56,-304.8 197.56,-326.55"/>
<text xml:space="preserve" text-anchor="start" x="187.06" y="-312.15" font-family="sans-serif" font-size="12.00">U</text>
<polygon fill="white" stroke="none" points="197.56,-304.8 197.56,-326.55 247.06,-326.55 247.06,-304.8 197.56,-304.8"/>
<polygon fill="none" stroke="black" points="197.56,-304.8 197.56,-326.55 247.06,-326.55 247.06,-304.8 197.56,-304.8"/>
<text xml:space="preserve" text-anchor="start" x="200.56" y="-312.15" font-family="sans-serif" font-size="12.00">OHS, PL</text>
</g>
<!-- ServicoContext -->
<g id="node3" class="node">
<title>ServicoContext</title>
<polygon fill="none" stroke="black" stroke-width="2" points="385.62,-241.74 379.04,-242.66 372.41,-243.45 365.76,-244.12 359.11,-244.65 352.5,-245.05 345.95,-245.32 339.47,-245.44 333.11,-245.43 326.87,-245.27 320.78,-244.98 314.86,-244.54 309.13,-243.97 303.61,-243.25 298.31,-242.4 293.25,-241.42 288.44,-240.3 283.89,-239.05 279.61,-237.68 275.61,-236.19 271.9,-234.58 268.48,-232.87 265.35,-231.05 262.52,-229.13 259.99,-227.12 257.75,-225.02 255.81,-222.85 254.16,-220.61 252.79,-218.31 251.71,-215.95 250.9,-213.54 250.36,-211.1 250.08,-208.63 250.06,-206.14 250.29,-203.63 250.75,-201.12 251.44,-198.61 252.35,-196.12 253.48,-193.64 254.81,-191.19 256.33,-188.78 258.05,-186.4 259.94,-184.08 262.01,-181.81 264.24,-179.6 266.64,-177.46 269.19,-175.4 271.9,-173.41 274.74,-171.51 277.73,-169.69 280.86,-167.97 284.12,-166.35 287.52,-164.82 291.04,-163.4 294.69,-162.08 298.46,-160.87 302.35,-159.77 306.36,-158.78 310.49,-157.91 314.74,-157.14 319.1,-156.49 323.56,-155.96 328.13,-155.53 332.81,-155.22 337.58,-155.03 342.44,-154.94 347.38,-154.97 352.41,-155.1 357.5,-155.34 362.66,-155.69 367.86,-156.14 373.11,-156.7 378.39,-157.36 383.69,-158.11 388.99,-158.96 394.27,-159.91 399.54,-160.95 404.75,-162.07 409.91,-163.29 414.99,-164.58 419.98,-165.96 424.85,-167.42 429.59,-168.95 434.17,-170.55 438.58,-172.22 442.79,-173.96 446.79,-175.76 450.56,-177.62 454.08,-179.54 457.33,-181.51 460.29,-183.52 462.95,-185.58 465.28,-187.68 467.28,-189.82 468.94,-191.99 470.22,-194.19 471.14,-196.4 471.68,-198.64 471.83,-200.89 471.58,-203.14 470.93,-205.4 469.89,-207.65 468.45,-209.9 466.6,-212.12 464.37,-214.33 461.74,-216.51 458.74,-218.66 455.37,-220.77 451.64,-222.83 447.57,-224.84 443.17,-226.79 438.46,-228.67 433.46,-230.49 428.18,-232.22 422.66,-233.88 416.91,-235.44 410.96,-236.91 404.83,-238.28 398.54,-239.55 392.13,-240.7 385.62,-241.74"/>
<text xml:space="preserve" text-anchor="middle" x="353.98" y="-193.75" font-family="sans-serif" font-size="16.00">ServicoContext</text>
</g>
<!-- AgendamentoContext&#45;&gt;ServicoContext -->
<g id="edge2" class="edge">
<title>AgendamentoContext&#45;&gt;ServicoContext</title>
<path fill="none" stroke="black" stroke-width="2" d="M311.56,-306.48C314.17,-293.32 317.61,-278.89 321.98,-265.98 324.23,-259.34 326.99,-252.49 329.94,-245.84"/>
<text xml:space="preserve" text-anchor="middle" x="396.98" y="-270.33" font-family="sans-serif" font-size="12.00"> &#160;&#160;&#160;&#160;&#160;&#160;&#160;&#160;&#160;&#160;&#160;&#160;&#160;&#160;&#160;&#160;&#160;&#160;&#160;&#160;&#160;&#160;&#160;&#160;&#160;&#160;&#160;&#160;&#160;&#160;&#160;&#160;&#160;&#160;&#160;&#160;&#160;&#160;&#160;</text>
<polygon fill="white" stroke="none" points="323.81,-235.97 323.81,-255.72 336.06,-255.72 336.06,-235.97 323.81,-235.97"/>
<text xml:space="preserve" text-anchor="start" x="325.81" y="-242.32" font-family="sans-serif" font-size="12.00">D</text>
<polygon fill="white" stroke="none" points="280.06,-295.6 280.06,-317.35 293.56,-317.35 293.56,-295.6 280.06,-295.6"/>
<polyline fill="none" stroke="black" points="293.56,-295.6 293.56,-317.35"/>
<text xml:space="preserve" text-anchor="start" x="283.06" y="-302.95" font-family="sans-serif" font-size="12.00">U</text>
<polygon fill="white" stroke="none" points="293.56,-295.6 293.56,-317.35 343.06,-317.35 343.06,-295.6 293.56,-295.6"/>
<polygon fill="none" stroke="black" points="293.56,-295.6 293.56,-317.35 343.06,-317.35 343.06,-295.6 293.56,-295.6"/>
<text xml:space="preserve" text-anchor="start" x="296.56" y="-302.95" font-family="sans-serif" font-size="12.00">OHS, PL</text>
</g>
<!-- VeterinariosContext -->
<g id="node5" class="node">
<title>VeterinariosContext</title>
<polygon fill="none" stroke="black" stroke-width="2" points="712.83,-240.98 704.97,-242.04 697.05,-242.98 689.07,-243.79 681.09,-244.47 673.12,-245.02 665.21,-245.43 657.37,-245.7 649.64,-245.83 642.05,-245.81 634.61,-245.65 627.36,-245.35 620.32,-244.9 613.51,-244.31 606.95,-243.58 600.66,-242.7 594.66,-241.69 588.95,-240.55 583.55,-239.28 578.47,-237.88 573.72,-236.35 569.31,-234.72 565.24,-232.97 561.52,-231.11 558.14,-229.16 555.11,-227.12 552.43,-225 550.09,-222.79 548.08,-220.52 546.41,-218.19 545.07,-215.81 544.05,-213.38 543.35,-210.92 542.95,-208.43 542.84,-205.93 543.03,-203.41 543.49,-200.89 544.22,-198.38 545.22,-195.88 546.46,-193.4 547.95,-190.96 549.67,-188.55 551.62,-186.18 553.79,-183.87 556.18,-181.62 558.76,-179.43 561.55,-177.31 564.53,-175.27 567.71,-173.3 571.06,-171.42 574.6,-169.64 578.32,-167.94 582.2,-166.34 586.27,-164.84 590.5,-163.45 594.89,-162.16 599.45,-160.97 604.18,-159.9 609.06,-158.93 614.1,-158.07 619.29,-157.33 624.63,-156.69 630.11,-156.17 635.74,-155.75 641.5,-155.45 647.38,-155.26 653.39,-155.17 659.51,-155.19 665.73,-155.32 672.04,-155.56 678.43,-155.89 684.88,-156.33 691.39,-156.87 697.93,-157.51 704.49,-158.24 711.05,-159.07 717.59,-159.99 724.09,-161 730.54,-162.09 736.9,-163.28 743.16,-164.54 749.29,-165.89 755.26,-167.31 761.07,-168.81 766.67,-170.38 772.05,-172.02 777.17,-173.73 782.03,-175.51 786.59,-177.34 790.83,-179.24 794.72,-181.19 798.26,-183.18 801.41,-185.23 804.15,-187.32 806.48,-189.45 808.38,-191.61 809.82,-193.81 810.81,-196.03 811.33,-198.27 811.37,-200.53 810.92,-202.8 809.99,-205.07 808.58,-207.34 806.67,-209.61 804.29,-211.86 801.44,-214.1 798.11,-216.31 794.34,-218.49 790.12,-220.63 785.48,-222.72 780.43,-224.77 775,-226.76 769.2,-228.68 763.06,-230.53 756.6,-232.31 749.86,-234 742.85,-235.6 735.62,-237.1 728.18,-238.5 720.57,-239.8 712.83,-240.98"/>
<text xml:space="preserve" text-anchor="middle" x="667.98" y="-193.75" font-family="sans-serif" font-size="16.00">VeterinariosContext</text>
</g>
<!-- AgendamentoContext&#45;&gt;VeterinariosContext -->
<g id="edge3" class="edge">
<title>AgendamentoContext&#45;&gt;VeterinariosContext</title>
<path fill="none" stroke="black" stroke-width="2" d="M391.32,-314.33C417.28,-303.94 445.82,-292.44 471.98,-281.73 506.45,-267.63 544.23,-251.9 577.34,-238.03"/>
<text xml:space="preserve" text-anchor="middle" x="584.57" y="-270.33" font-family="sans-serif" font-size="12.00"> &#160;&#160;&#160;&#160;&#160;&#160;&#160;&#160;&#160;&#160;&#160;&#160;&#160;&#160;&#160;&#160;&#160;&#160;&#160;&#160;&#160;&#160;&#160;&#160;&#160;&#160;&#160;&#160;&#160;&#160;&#160;&#160;&#160;&#160;&#160;&#160;&#160;&#160;&#160;</text>
<polygon fill="white" stroke="none" points="571.22,-228.15 571.22,-247.9 583.47,-247.9 583.47,-228.15 571.22,-228.15"/>
<text xml:space="preserve" text-anchor="start" x="573.22" y="-234.5" font-family="sans-serif" font-size="12.00">D</text>
<polygon fill="white" stroke="none" points="359.82,-303.45 359.82,-325.2 373.32,-325.2 373.32,-303.45 359.82,-303.45"/>
<polyline fill="none" stroke="black" points="373.32,-303.45 373.32,-325.2"/>
<text xml:space="preserve" text-anchor="start" x="362.82" y="-310.8" font-family="sans-serif" font-size="12.00">U</text>
<polygon fill="white" stroke="none" points="373.32,-303.45 373.32,-325.2 422.82,-325.2 422.82,-303.45 373.32,-303.45"/>
<polygon fill="none" stroke="black" points="373.32,-303.45 373.32,-325.2 422.82,-325.2 422.82,-303.45 373.32,-303.45"/>
<text xml:space="preserve" text-anchor="start" x="376.32" y="-310.8" font-family="sans-serif" font-size="12.00">OHS, PL</text>
</g>
<!-- PasseadoresContext -->
<g id="node4" class="node">
<title>PasseadoresContext</title>
<polygon fill="none" stroke="black" stroke-width="2" points="222.75,-43.76 223.62,-40.83 224.85,-37.94 226.43,-35.1 228.36,-32.31 230.63,-29.58 233.24,-26.94 236.18,-24.38 239.44,-21.92 243.02,-19.57 246.89,-17.33 251.06,-15.22 255.51,-13.23 260.22,-11.39 265.19,-9.68 270.41,-8.12 275.85,-6.71 281.5,-5.46 287.35,-4.36 293.37,-3.42 299.57,-2.63 305.91,-2.01 312.38,-1.54 318.96,-1.22 325.64,-1.06 332.4,-1.04 339.21,-1.17 346.07,-1.45 352.94,-1.85 359.82,-2.39 366.68,-3.06 373.51,-3.84 380.28,-4.74 386.99,-5.75 393.6,-6.85 400.11,-8.05 406.49,-9.34 412.73,-10.71 418.81,-12.15 424.71,-13.66 430.42,-15.24 435.92,-16.87 441.2,-18.54 446.25,-20.27 451.04,-22.03 455.57,-23.83 459.82,-25.66 463.78,-27.51 467.45,-29.39 470.81,-31.28 473.84,-33.2 476.55,-35.12 478.93,-37.05 480.96,-39 482.65,-40.94 483.99,-42.9 484.97,-44.85 485.59,-46.81 485.85,-48.76 485.75,-50.72 485.29,-52.67 484.46,-54.62 483.28,-56.56 481.75,-58.5 479.86,-60.42 477.63,-62.34 475.06,-64.24 472.15,-66.13 468.92,-68.01 465.37,-69.86 461.52,-71.69 457.37,-73.5 452.93,-75.28 448.22,-77.02 443.25,-78.73 438.03,-80.39 432.58,-82 426.91,-83.57 421.05,-85.07 414.99,-86.51 408.77,-87.88 402.39,-89.18 395.88,-90.39 389.26,-91.51 382.54,-92.54 375.73,-93.46 368.87,-94.28 361.97,-94.98 355.04,-95.56 348.11,-96.02 341.2,-96.35 334.32,-96.54 327.5,-96.59 320.75,-96.49 314.09,-96.25 307.54,-95.86 301.12,-95.31 294.85,-94.61 288.74,-93.75 282.81,-92.74 277.08,-91.57 271.56,-90.25 266.27,-88.78 261.22,-87.16 256.43,-85.39 251.9,-83.49 247.66,-81.46 243.72,-79.29 240.07,-77.01 236.74,-74.62 233.73,-72.12 231.06,-69.53 228.72,-66.86 226.73,-64.11 225.08,-61.3 223.8,-58.43 222.86,-55.53 222.29,-52.6 222.08,-49.65 222.23,-46.7 222.75,-43.76"/>
<text xml:space="preserve" text-anchor="middle" x="353.98" y="-43.88" font-family="sans-serif" font-size="16.00">PasseadoresContext</text>
</g>
<!-- ServicoContext&#45;&gt;PasseadoresContext -->
<g id="edge4" class="edge">
<title>ServicoContext&#45;&gt;PasseadoresContext</title>
<path fill="none" stroke="black" stroke-width="2" d="M353.98,-155.06C353.98,-136.55 353.98,-114.85 353.98,-95.99"/>
<text xml:space="preserve" text-anchor="middle" x="428.98" y="-120.27" font-family="sans-serif" font-size="12.00"> &#160;&#160;&#160;&#160;&#160;&#160;&#160;&#160;&#160;&#160;&#160;&#160;&#160;&#160;&#160;&#160;&#160;&#160;&#160;&#160;&#160;&#160;&#160;&#160;&#160;&#160;&#160;&#160;&#160;&#160;&#160;&#160;&#160;&#160;&#160;&#160;&#160;&#160;&#160;</text>
<polygon fill="white" stroke="none" points="347.85,-86.11 347.85,-105.86 360.1,-105.86 360.1,-86.11 347.85,-86.11"/>
<text xml:space="preserve" text-anchor="start" x="349.85" y="-92.46" font-family="sans-serif" font-size="12.00">D</text>
<polygon fill="white" stroke="none" points="322.48,-144.18 322.48,-165.93 335.98,-165.93 335.98,-144.18 322.48,-144.18"/>
<polyline fill="none" stroke="black" points="335.98,-144.18 335.98,-165.93"/>
<text xml:space="preserve" text-anchor="start" x="325.48" y="-151.53" font-family="sans-serif" font-size="12.00">U</text>
<polygon fill="white" stroke="none" points="335.98,-144.18 335.98,-165.93 385.48,-165.93 385.48,-144.18 335.98,-144.18"/>
<polygon fill="none" stroke="black" points="335.98,-144.18 335.98,-165.93 385.48,-165.93 385.48,-144.18 335.98,-144.18"/>
<text xml:space="preserve" text-anchor="start" x="338.98" y="-151.53" font-family="sans-serif" font-size="12.00">OHS, PL</text>
</g>
<!-- AssinaturasContext -->
<g id="node6" class="node">
<title>AssinaturasContext</title>
<polygon fill="none" stroke="black" stroke-width="2" points="1364.58,-381.23 1358.82,-383.35 1352.85,-385.37 1346.68,-387.29 1340.35,-389.08 1333.88,-390.75 1327.28,-392.29 1320.59,-393.69 1313.82,-394.94 1307.01,-396.05 1300.16,-397 1293.31,-397.79 1286.47,-398.42 1279.67,-398.89 1272.92,-399.19 1266.24,-399.33 1259.66,-399.3 1253.18,-399.1 1246.82,-398.74 1240.6,-398.22 1234.53,-397.54 1228.62,-396.71 1222.89,-395.72 1217.34,-394.59 1211.98,-393.32 1206.82,-391.92 1201.87,-390.39 1197.14,-388.74 1192.63,-386.98 1188.35,-385.11 1184.3,-383.15 1180.48,-381.1 1176.9,-378.97 1173.56,-376.77 1170.47,-374.52 1167.62,-372.21 1165.02,-369.86 1162.67,-367.47 1160.57,-365.06 1158.72,-362.63 1157.12,-360.2 1155.78,-357.76 1154.7,-355.33 1153.88,-352.92 1153.31,-350.52 1153.01,-348.16 1152.96,-345.83 1153.19,-343.53 1153.68,-341.29 1154.43,-339.09 1155.46,-336.95 1156.76,-334.86 1158.32,-332.84 1160.17,-330.88 1162.28,-329 1164.67,-327.18 1167.34,-325.43 1170.27,-323.76 1173.49,-322.16 1176.97,-320.65 1180.72,-319.2 1184.74,-317.84 1189.03,-316.56 1193.57,-315.35 1198.36,-314.23 1203.4,-313.19 1208.67,-312.23 1214.18,-311.35 1219.9,-310.55 1225.83,-309.83 1231.95,-309.19 1238.25,-308.64 1244.72,-308.17 1251.34,-307.78 1258.08,-307.48 1264.95,-307.26 1271.9,-307.13 1278.93,-307.09 1286.01,-307.13 1293.12,-307.26 1300.23,-307.49 1307.33,-307.8 1314.39,-308.21 1321.38,-308.72 1328.27,-309.32 1335.05,-310.01 1341.69,-310.81 1348.16,-311.7 1354.43,-312.69 1360.49,-313.78 1366.31,-314.97 1371.87,-316.26 1377.14,-317.66 1382.1,-319.14 1386.73,-320.73 1391.02,-322.41 1394.94,-324.19 1398.48,-326.06 1401.63,-328.01 1404.36,-330.05 1406.68,-332.17 1408.57,-334.37 1410.02,-336.64 1411.03,-338.97 1411.6,-341.37 1411.72,-343.81 1411.39,-346.3 1410.62,-348.84 1409.4,-351.4 1407.76,-353.98 1405.69,-356.58 1403.2,-359.18 1400.31,-361.78 1397.04,-364.36 1393.38,-366.92 1389.37,-369.45 1385.01,-371.93 1380.34,-374.36 1375.36,-376.73 1370.1,-379.02 1364.58,-381.23"/>
<text xml:space="preserve" text-anchor="middle" x="1273.98" y="-344.56" font-family="sans-serif" font-size="16.00">AssinaturasContext</text>
</g>
<!-- EcommerceContext -->
<g id="node7" class="node">
<title>EcommerceContext</title>
<polygon fill="none" stroke="black" stroke-width="2" points="1425.49,-211.7 1423.21,-214.53 1420.62,-217.3 1417.7,-220.01 1414.48,-222.65 1410.97,-225.19 1407.18,-227.64 1403.11,-229.99 1398.79,-232.22 1394.22,-234.33 1389.42,-236.3 1384.41,-238.14 1379.19,-239.83 1373.78,-241.37 1368.2,-242.75 1362.46,-243.98 1356.58,-245.05 1350.58,-245.95 1344.46,-246.68 1338.25,-247.25 1331.96,-247.66 1325.61,-247.9 1319.21,-247.98 1312.78,-247.91 1306.33,-247.67 1299.88,-247.29 1293.45,-246.76 1287.06,-246.08 1280.7,-245.27 1274.41,-244.34 1268.2,-243.28 1262.08,-242.1 1256.07,-240.82 1250.18,-239.43 1244.42,-237.95 1238.81,-236.38 1233.36,-234.74 1228.09,-233.02 1223.01,-231.24 1218.13,-229.4 1213.47,-227.52 1209.03,-225.59 1204.82,-223.62 1200.87,-221.63 1197.17,-219.61 1193.74,-217.57 1190.59,-215.52 1187.73,-213.46 1185.16,-211.39 1182.9,-209.33 1180.95,-207.26 1179.32,-205.21 1178.01,-203.16 1177.03,-201.13 1176.38,-199.11 1176.07,-197.11 1176.1,-195.13 1176.48,-193.17 1177.19,-191.22 1178.26,-189.3 1179.66,-187.41 1181.4,-185.54 1183.49,-183.7 1185.91,-181.88 1188.66,-180.1 1191.73,-178.34 1195.12,-176.62 1198.83,-174.93 1202.83,-173.27 1207.13,-171.66 1211.71,-170.08 1216.56,-168.55 1221.66,-167.06 1227.01,-165.62 1232.59,-164.23 1238.39,-162.9 1244.38,-161.64 1250.55,-160.43 1256.89,-159.3 1263.37,-158.24 1269.98,-157.26 1276.69,-156.36 1283.5,-155.55 1290.36,-154.84 1297.28,-154.22 1304.22,-153.71 1311.16,-153.31 1318.09,-153.03 1324.98,-152.86 1331.81,-152.82 1338.56,-152.91 1345.21,-153.13 1351.74,-153.48 1358.13,-153.98 1364.35,-154.61 1370.4,-155.38 1376.25,-156.3 1381.88,-157.36 1387.28,-158.57 1392.43,-159.92 1397.31,-161.4 1401.92,-163.03 1406.24,-164.79 1410.25,-166.69 1413.95,-168.71 1417.32,-170.85 1420.36,-173.1 1423.05,-175.47 1425.4,-177.93 1427.39,-180.48 1429.02,-183.12 1430.29,-185.83 1431.2,-188.6 1431.74,-191.43 1431.92,-194.29 1431.74,-197.19 1431.19,-200.1 1430.29,-203.02 1429.03,-205.94 1427.43,-208.83 1425.49,-211.7"/>
<text xml:space="preserve" text-anchor="middle" x="1302.98" y="-193.75" font-family="sans-serif" font-size="16.00">EcommerceContext</text>
</g>
<!-- AssinaturasContext&#45;&gt;EcommerceContext -->
<g id="edge5" class="edge">
<title>AssinaturasContext&#45;&gt;EcommerceContext</title>
<path fill="none" stroke="black" stroke-width="2" d="M1277.73,-306.81C1279.26,-293.67 1281.31,-279.16 1283.98,-265.98 1285.26,-259.66 1286.85,-253.06 1288.55,-246.58"/>
<text xml:space="preserve" text-anchor="middle" x="1358.98" y="-270.33" font-family="sans-serif" font-size="12.00"> &#160;&#160;&#160;&#160;&#160;&#160;&#160;&#160;&#160;&#160;&#160;&#160;&#160;&#160;&#160;&#160;&#160;&#160;&#160;&#160;&#160;&#160;&#160;&#160;&#160;&#160;&#160;&#160;&#160;&#160;&#160;&#160;&#160;&#160;&#160;&#160;&#160;&#160;&#160;</text>
<polygon fill="white" stroke="none" points="1282.43,-236.71 1282.43,-256.46 1294.68,-256.46 1294.68,-236.71 1282.43,-236.71"/>
<text xml:space="preserve" text-anchor="start" x="1284.43" y="-243.06" font-family="sans-serif" font-size="12.00">D</text>
<polygon fill="white" stroke="none" points="1246.23,-295.93 1246.23,-317.68 1259.73,-317.68 1259.73,-295.93 1246.23,-295.93"/>
<polyline fill="none" stroke="black" points="1259.73,-295.93 1259.73,-317.68"/>
<text xml:space="preserve" text-anchor="start" x="1249.23" y="-303.28" font-family="sans-serif" font-size="12.00">U</text>
<polygon fill="white" stroke="none" points="1259.73,-295.93 1259.73,-317.68 1309.23,-317.68 1309.23,-295.93 1259.73,-295.93"/>
<polygon fill="none" stroke="black" points="1259.73,-295.93 1259.73,-317.68 1309.23,-317.68 1309.23,-295.93 1259.73,-295.93"/>
<text xml:space="preserve" text-anchor="start" x="1262.73" y="-303.28" font-family="sans-serif" font-size="12.00">OHS, PL</text>
</g>
<!-- LojasContext -->
<g id="node8" class="node">
<title>LojasContext</title>
<polygon fill="none" stroke="black" stroke-width="2" points="1032.08,-12.75 1037.07,-10.97 1042.2,-9.31 1047.42,-7.76 1052.74,-6.34 1058.11,-5.05 1063.54,-3.89 1068.99,-2.88 1074.44,-2.01 1079.89,-1.3 1085.3,-0.74 1090.67,-0.33 1095.97,-0.09 1101.19,0 1106.31,-0.07 1111.33,-0.31 1116.22,-0.7 1120.98,-1.25 1125.59,-1.96 1130.05,-2.82 1134.34,-3.82 1138.46,-4.97 1142.4,-6.26 1146.16,-7.69 1149.72,-9.24 1153.09,-10.91 1156.27,-12.69 1159.24,-14.59 1162.01,-16.58 1164.57,-18.66 1166.93,-20.82 1169.09,-23.05 1171.04,-25.35 1172.8,-27.7 1174.35,-30.1 1175.7,-32.54 1176.85,-35.01 1177.8,-37.49 1178.56,-39.99 1179.13,-42.49 1179.5,-44.99 1179.68,-47.47 1179.68,-49.93 1179.49,-52.36 1179.11,-54.75 1178.54,-57.1 1177.8,-59.41 1176.86,-61.66 1175.75,-63.85 1174.45,-65.98 1172.97,-68.04 1171.31,-70.03 1169.47,-71.94 1167.45,-73.77 1165.24,-75.52 1162.85,-77.18 1160.29,-78.76 1157.54,-80.25 1154.62,-81.65 1151.52,-82.95 1148.24,-84.17 1144.79,-85.29 1141.17,-86.32 1137.39,-87.26 1133.45,-88.11 1129.35,-88.86 1125.1,-89.52 1120.71,-90.08 1116.18,-90.56 1111.53,-90.94 1106.76,-91.23 1101.88,-91.43 1096.91,-91.54 1091.86,-91.55 1086.73,-91.48 1081.55,-91.31 1076.33,-91.06 1071.08,-90.71 1065.82,-90.28 1060.58,-89.75 1055.35,-89.14 1050.18,-88.44 1045.06,-87.64 1040.03,-86.76 1035.09,-85.79 1030.28,-84.72 1025.6,-83.57 1021.08,-82.33 1016.74,-81.01 1012.59,-79.59 1008.66,-78.1 1004.95,-76.51 1001.5,-74.85 998.3,-73.11 995.38,-71.28 992.75,-69.39 990.42,-67.41 988.41,-65.37 986.72,-63.27 985.37,-61.1 984.35,-58.88 983.68,-56.61 983.35,-54.29 983.38,-51.92 983.76,-49.53 984.49,-47.11 985.57,-44.66 986.99,-42.2 988.74,-39.74 990.83,-37.28 993.24,-34.83 995.96,-32.4 998.98,-29.99 1002.28,-27.62 1005.86,-25.29 1009.69,-23.02 1013.76,-20.81 1018.05,-18.67 1022.55,-16.6 1027.23,-14.63 1032.08,-12.75"/>
<text xml:space="preserve" text-anchor="middle" x="1088.98" y="-43.88" font-family="sans-serif" font-size="16.00">LojasContext</text>
</g>
<!-- EcommerceContext&#45;&gt;LojasContext -->
<g id="edge6" class="edge">
<title>EcommerceContext&#45;&gt;LojasContext</title>
<path fill="none" stroke="black" stroke-width="2" d="M1248.7,-160.32C1215.89,-137.65 1174.25,-108.88 1141.72,-86.4"/>
<text xml:space="preserve" text-anchor="middle" x="1277.39" y="-120.27" font-family="sans-serif" font-size="12.00"> &#160;&#160;&#160;&#160;&#160;&#160;&#160;&#160;&#160;&#160;&#160;&#160;&#160;&#160;&#160;&#160;&#160;&#160;&#160;&#160;&#160;&#160;&#160;&#160;&#160;&#160;&#160;&#160;&#160;&#160;&#160;&#160;&#160;&#160;&#160;&#160;&#160;&#160;&#160;</text>
<polygon fill="white" stroke="none" points="1135.59,-76.53 1135.59,-96.28 1147.84,-96.28 1147.84,-76.53 1135.59,-76.53"/>
<text xml:space="preserve" text-anchor="start" x="1137.59" y="-82.88" font-family="sans-serif" font-size="12.00">D</text>
<polygon fill="white" stroke="none" points="1217.2,-149.45 1217.2,-171.2 1230.7,-171.2 1230.7,-149.45 1217.2,-149.45"/>
<polyline fill="none" stroke="black" points="1230.7,-149.45 1230.7,-171.2"/>
<text xml:space="preserve" text-anchor="start" x="1220.2" y="-156.8" font-family="sans-serif" font-size="12.00">U</text>
<polygon fill="white" stroke="none" points="1230.7,-149.45 1230.7,-171.2 1280.2,-171.2 1280.2,-149.45 1230.7,-149.45"/>
<polygon fill="none" stroke="black" points="1230.7,-149.45 1230.7,-171.2 1280.2,-171.2 1280.2,-149.45 1230.7,-149.45"/>
<text xml:space="preserve" text-anchor="start" x="1233.7" y="-156.8" font-family="sans-serif" font-size="12.00">OHS, PL</text>
</g>
<!-- ConselhoFederalMedVetContext -->
<g id="node9" class="node">
<title>ConselhoFederalMedVetContext</title>
<polygon fill="none" stroke="black" stroke-width="2" points="856.14,-345.44 857.47,-348.36 858.28,-351.28 858.55,-354.17 858.29,-357.04 857.49,-359.86 856.15,-362.64 854.27,-365.34 851.86,-367.98 848.91,-370.54 845.44,-373 841.46,-375.36 836.97,-377.62 831.99,-379.76 826.52,-381.78 820.59,-383.67 814.21,-385.43 807.4,-387.06 800.18,-388.55 792.57,-389.9 784.59,-391.1 776.27,-392.16 767.62,-393.08 758.69,-393.86 749.48,-394.49 740.05,-394.98 730.4,-395.33 720.57,-395.55 710.59,-395.64 700.5,-395.6 690.32,-395.44 680.08,-395.15 669.81,-394.75 659.56,-394.24 649.34,-393.63 639.18,-392.91 629.13,-392.11 619.21,-391.21 609.44,-390.23 599.86,-389.17 590.49,-388.03 581.37,-386.83 572.52,-385.56 563.95,-384.23 555.71,-382.85 547.8,-381.41 540.25,-379.92 533.08,-378.39 526.32,-376.81 519.96,-375.19 514.04,-373.54 508.57,-371.85 503.56,-370.12 499.01,-368.37 494.95,-366.58 491.37,-364.77 488.29,-362.92 485.72,-361.05 483.64,-359.16 482.07,-357.24 481.01,-355.3 480.46,-353.34 480.41,-351.35 480.87,-349.35 481.83,-347.33 483.27,-345.3 485.21,-343.25 487.62,-341.2 490.51,-339.14 493.85,-337.07 497.64,-335.01 501.87,-332.95 506.53,-330.9 511.6,-328.86 517.06,-326.84 522.91,-324.84 529.12,-322.88 535.68,-320.95 542.58,-319.06 549.79,-317.22 557.3,-315.44 565.09,-313.73 573.14,-312.08 581.43,-310.52 589.94,-309.04 598.65,-307.65 607.54,-306.36 616.58,-305.19 625.76,-304.13 635.06,-303.19 644.44,-302.38 653.9,-301.71 663.4,-301.18 672.93,-300.79 682.46,-300.56 691.96,-300.48 701.42,-300.56 710.81,-300.8 720.11,-301.21 729.29,-301.78 738.33,-302.52 747.21,-303.42 755.9,-304.48 764.38,-305.71 772.62,-307.1 780.61,-308.64 788.33,-310.33 795.74,-312.17 802.83,-314.14 809.59,-316.25 815.98,-318.48 821.98,-320.82 827.59,-323.27 832.78,-325.82 837.54,-328.45 841.84,-331.16 845.68,-333.94 849.04,-336.76 851.91,-339.63 854.28,-342.53 856.14,-345.44"/>
<text xml:space="preserve" text-anchor="middle" x="667.98" y="-344.56" font-family="sans-serif" font-size="16.00">ConselhoFederalMedVetContext</text>
</g>
<!-- ConselhoFederalMedVetContext&#45;&gt;VeterinariosContext -->
<g id="edge7" class="edge">
<title>ConselhoFederalMedVetContext&#45;&gt;VeterinariosContext</title>
<path fill="none" stroke="black" stroke-width="2" d="M667.98,-300.73C667.98,-283.06 667.98,-263.09 667.98,-245.61"/>
<text xml:space="preserve" text-anchor="middle" x="742.98" y="-270.33" font-family="sans-serif" font-size="12.00"> &#160;&#160;&#160;&#160;&#160;&#160;&#160;&#160;&#160;&#160;&#160;&#160;&#160;&#160;&#160;&#160;&#160;&#160;&#160;&#160;&#160;&#160;&#160;&#160;&#160;&#160;&#160;&#160;&#160;&#160;&#160;&#160;&#160;&#160;&#160;&#160;&#160;&#160;&#160;</text>
<polygon fill="white" stroke="none" points="647.35,-234.74 647.35,-256.49 661.6,-256.49 661.6,-234.74 647.35,-234.74"/>
<polyline fill="none" stroke="black" points="661.6,-234.74 661.6,-256.49"/>
<text xml:space="preserve" text-anchor="start" x="650.35" y="-242.09" font-family="sans-serif" font-size="12.00">D</text>
<polygon fill="white" stroke="none" points="661.6,-234.74 661.6,-256.49 688.6,-256.49 688.6,-234.74 661.6,-234.74"/>
<polygon fill="none" stroke="black" points="661.6,-234.74 661.6,-256.49 688.6,-256.49 688.6,-234.74 661.6,-234.74"/>
<text xml:space="preserve" text-anchor="start" x="664.6" y="-242.09" font-family="sans-serif" font-size="12.00">ACL</text>
<polygon fill="white" stroke="none" points="662.23,-290.86 662.23,-310.61 673.73,-310.61 673.73,-290.86 662.23,-290.86"/>
<text xml:space="preserve" text-anchor="start" x="664.23" y="-297.21" font-family="sans-serif" font-size="12.00">U</text>
</g>
<!-- FarmaciaContext -->
<g id="node10" class="node">
<title>FarmaciaContext</title>
<polygon fill="none" stroke="black" stroke-width="2" points="898.48,-328.78 901.85,-326.16 905.49,-323.61 909.37,-321.14 913.48,-318.78 917.8,-316.51 922.33,-314.36 927.05,-312.33 931.94,-310.43 936.98,-308.67 942.16,-307.05 947.47,-305.59 952.88,-304.28 958.38,-303.13 963.97,-302.14 969.61,-301.32 975.3,-300.67 981.02,-300.19 986.76,-299.88 992.5,-299.73 998.23,-299.76 1003.94,-299.95 1009.61,-300.3 1015.23,-300.8 1020.78,-301.47 1026.27,-302.28 1031.66,-303.23 1036.96,-304.32 1042.16,-305.54 1047.23,-306.88 1052.18,-308.34 1056.99,-309.9 1061.66,-311.57 1066.17,-313.32 1070.51,-315.16 1074.68,-317.08 1078.68,-319.06 1082.48,-321.1 1086.08,-323.18 1089.48,-325.32 1092.67,-327.48 1095.64,-329.67 1098.38,-331.88 1100.89,-334.11 1103.16,-336.34 1105.18,-338.57 1106.95,-340.8 1108.47,-343.01 1109.72,-345.21 1110.71,-347.39 1111.42,-349.54 1111.86,-351.67 1112.02,-353.76 1111.89,-355.83 1111.48,-357.85 1110.77,-359.84 1109.78,-361.78 1108.5,-363.68 1106.92,-365.54 1105.06,-367.35 1102.9,-369.12 1100.46,-370.84 1097.73,-372.51 1094.72,-374.13 1091.43,-375.69 1087.87,-377.21 1084.05,-378.68 1079.97,-380.09 1075.64,-381.44 1071.08,-382.74 1066.28,-383.98 1061.27,-385.16 1056.06,-386.28 1050.65,-387.33 1045.07,-388.32 1039.33,-389.23 1033.44,-390.08 1027.42,-390.85 1021.3,-391.53 1015.08,-392.14 1008.79,-392.66 1002.45,-393.09 996.07,-393.43 989.68,-393.67 983.3,-393.81 976.95,-393.84 970.65,-393.77 964.41,-393.58 958.27,-393.28 952.25,-392.86 946.35,-392.32 940.61,-391.66 935.04,-390.88 929.66,-389.96 924.49,-388.93 919.55,-387.76 914.85,-386.47 910.41,-385.05 906.25,-383.5 902.37,-381.83 898.8,-380.04 895.54,-378.14 892.6,-376.12 889.99,-373.99 887.72,-371.76 885.79,-369.43 884.22,-367.01 883,-364.51 882.13,-361.94 881.62,-359.3 881.47,-356.6 881.67,-353.85 882.22,-351.07 883.11,-348.26 884.35,-345.44 885.92,-342.61 887.82,-339.78 890.03,-336.98 892.56,-334.2 895.37,-331.46 898.48,-328.78"/>
<text xml:space="preserve" text-anchor="middle" x="999.98" y="-344.56" font-family="sans-serif" font-size="16.00">FarmaciaContext</text>
</g>
<!-- FarmaciaContext&#45;&gt;VeterinariosContext -->
<g id="edge9" class="edge">
<title>FarmaciaContext&#45;&gt;VeterinariosContext</title>
<path fill="none" stroke="black" stroke-width="2" d="M916.5,-316.96C892.01,-306.69 865.5,-294.6 841.98,-281.73 831.11,-275.79 829.81,-272 818.98,-265.98 798.08,-254.39 774.75,-243.32 752.8,-233.66"/>
<text xml:space="preserve" text-anchor="middle" x="916.98" y="-270.33" font-family="sans-serif" font-size="12.00"> &#160;&#160;&#160;&#160;&#160;&#160;&#160;&#160;&#160;&#160;&#160;&#160;&#160;&#160;&#160;&#160;&#160;&#160;&#160;&#160;&#160;&#160;&#160;&#160;&#160;&#160;&#160;&#160;&#160;&#160;&#160;&#160;&#160;&#160;&#160;&#160;&#160;&#160;&#160;</text>
<polygon fill="white" stroke="none" points="746.68,-223.79 746.68,-243.54 758.93,-243.54 758.93,-223.79 746.68,-223.79"/>
<text xml:space="preserve" text-anchor="start" x="748.68" y="-230.14" font-family="sans-serif" font-size="12.00">D</text>
<polygon fill="white" stroke="none" points="885,-306.08 885,-327.83 898.5,-327.83 898.5,-306.08 885,-306.08"/>
<polyline fill="none" stroke="black" points="898.5,-306.08 898.5,-327.83"/>
<text xml:space="preserve" text-anchor="start" x="888" y="-313.43" font-family="sans-serif" font-size="12.00">U</text>
<polygon fill="white" stroke="none" points="898.5,-306.08 898.5,-327.83 948,-327.83 948,-306.08 898.5,-306.08"/>
<polygon fill="none" stroke="black" points="898.5,-306.08 898.5,-327.83 948,-327.83 948,-306.08 898.5,-306.08"/>
<text xml:space="preserve" text-anchor="start" x="901.5" y="-313.43" font-family="sans-serif" font-size="12.00">OHS, PL</text>
</g>
<!-- FarmaciaContext&#45;&gt;LojasContext -->
<g id="edge8" class="edge">
<title>FarmaciaContext&#45;&gt;LojasContext</title>
<path fill="none" stroke="black" stroke-width="2" d="M996.23,-299.59C994.8,-258.3 996.83,-198.36 1014.98,-149.67 1023.19,-127.65 1037.82,-106.31 1051.92,-89.05"/>
<text xml:space="preserve" text-anchor="middle" x="1089.98" y="-195.3" font-family="sans-serif" font-size="12.00"> &#160;&#160;&#160;&#160;&#160;&#160;&#160;&#160;&#160;&#160;&#160;&#160;&#160;&#160;&#160;&#160;&#160;&#160;&#160;&#160;&#160;&#160;&#160;&#160;&#160;&#160;&#160;&#160;&#160;&#160;&#160;&#160;&#160;&#160;&#160;&#160;&#160;&#160;&#160;</text>
<polygon fill="white" stroke="none" points="1045.79,-79.18 1045.79,-98.93 1058.04,-98.93 1058.04,-79.18 1045.79,-79.18"/>
<text xml:space="preserve" text-anchor="start" x="1047.79" y="-85.53" font-family="sans-serif" font-size="12.00">D</text>
<polygon fill="white" stroke="none" points="964.73,-288.72 964.73,-310.47 978.23,-310.47 978.23,-288.72 964.73,-288.72"/>
<polyline fill="none" stroke="black" points="978.23,-288.72 978.23,-310.47"/>
<text xml:space="preserve" text-anchor="start" x="967.73" y="-296.07" font-family="sans-serif" font-size="12.00">U</text>
<polygon fill="white" stroke="none" points="978.23,-288.72 978.23,-310.47 1027.73,-310.47 1027.73,-288.72 978.23,-288.72"/>
<polygon fill="none" stroke="black" points="978.23,-288.72 978.23,-310.47 1027.73,-310.47 1027.73,-288.72 978.23,-288.72"/>
<text xml:space="preserve" text-anchor="start" x="981.23" y="-296.07" font-family="sans-serif" font-size="12.00">OHS, PL</text>
</g>
<!-- PagamentosContext -->
<g id="node11" class="node">
<title>PagamentosContext</title>
<polygon fill="none" stroke="black" stroke-width="2" points="1145.62,-490.82 1147.22,-487.93 1149.17,-485.09 1151.46,-482.3 1154.07,-479.58 1157.01,-476.93 1160.26,-474.37 1163.82,-471.91 1167.67,-469.56 1171.8,-467.32 1176.19,-465.21 1180.85,-463.22 1185.75,-461.38 1190.88,-459.68 1196.22,-458.13 1201.77,-456.73 1207.5,-455.49 1213.4,-454.41 1219.46,-453.48 1225.66,-452.73 1231.98,-452.13 1238.4,-451.69 1244.92,-451.41 1251.5,-451.3 1258.15,-451.33 1264.83,-451.52 1271.53,-451.85 1278.23,-452.32 1284.92,-452.93 1291.58,-453.68 1298.19,-454.54 1304.74,-455.53 1311.21,-456.62 1317.57,-457.82 1323.83,-459.12 1329.95,-460.51 1335.93,-461.98 1341.75,-463.53 1347.39,-465.15 1352.84,-466.83 1358.08,-468.56 1363.11,-470.35 1367.9,-472.18 1372.45,-474.04 1376.73,-475.94 1380.75,-477.87 1384.49,-479.82 1387.93,-481.78 1391.08,-483.76 1393.91,-485.75 1396.43,-487.74 1398.62,-489.74 1400.48,-491.74 1401.99,-493.73 1403.16,-495.72 1403.99,-497.71 1404.46,-499.68 1404.58,-501.65 1404.34,-503.61 1403.74,-505.55 1402.79,-507.48 1401.48,-509.4 1399.82,-511.3 1397.82,-513.18 1395.46,-515.04 1392.77,-516.89 1389.74,-518.71 1386.39,-520.51 1382.72,-522.28 1378.75,-524.02 1374.47,-525.73 1369.91,-527.41 1365.07,-529.04 1359.98,-530.64 1354.63,-532.19 1349.05,-533.69 1343.26,-535.14 1337.26,-536.53 1331.08,-537.85 1324.73,-539.11 1318.23,-540.29 1311.6,-541.39 1304.86,-542.4 1298.03,-543.32 1291.13,-544.15 1284.17,-544.87 1277.18,-545.48 1270.18,-545.97 1263.19,-546.35 1256.22,-546.6 1249.31,-546.72 1242.47,-546.7 1235.71,-546.55 1229.06,-546.26 1222.55,-545.82 1216.18,-545.23 1209.97,-544.5 1203.95,-543.61 1198.13,-542.58 1192.53,-541.39 1187.16,-540.06 1182.05,-538.58 1177.19,-536.96 1172.61,-535.19 1168.32,-533.29 1164.34,-531.26 1160.66,-529.11 1157.31,-526.84 1154.29,-524.46 1151.61,-521.97 1149.27,-519.4 1147.28,-516.74 1145.65,-514 1144.38,-511.21 1143.47,-508.36 1142.93,-505.47 1142.74,-502.55 1142.92,-499.61 1143.47,-496.67 1144.36,-493.73 1145.62,-490.82"/>
<text xml:space="preserve" text-anchor="middle" x="1273.98" y="-494.81" font-family="sans-serif" font-size="16.00">PagamentosContext</text>
</g>
<!-- PagamentosContext&#45;&gt;AssinaturasContext -->
<g id="edge12" class="edge">
<title>PagamentosContext&#45;&gt;AssinaturasContext</title>
<path fill="none" stroke="black" stroke-width="2" d="M1273.98,-451.57C1273.98,-434.97 1273.98,-416.28 1273.98,-399.54"/>
<text xml:space="preserve" text-anchor="middle" x="1348.98" y="-421.9" font-family="sans-serif" font-size="12.00"> &#160;&#160;&#160;&#160;&#160;&#160;&#160;&#160;&#160;&#160;&#160;&#160;&#160;&#160;&#160;&#160;&#160;&#160;&#160;&#160;&#160;&#160;&#160;&#160;&#160;&#160;&#160;&#160;&#160;&#160;&#160;&#160;&#160;&#160;&#160;&#160;&#160;&#160;&#160;</text>
<polygon fill="white" stroke="none" points="1253.35,-388.67 1253.35,-410.42 1267.6,-410.42 1267.6,-388.67 1253.35,-388.67"/>
<polyline fill="none" stroke="black" points="1267.6,-388.67 1267.6,-410.42"/>
<text xml:space="preserve" text-anchor="start" x="1256.35" y="-396.02" font-family="sans-serif" font-size="12.00">D</text>
<polygon fill="white" stroke="none" points="1267.6,-388.67 1267.6,-410.42 1294.6,-410.42 1294.6,-388.67 1267.6,-388.67"/>
<polygon fill="none" stroke="black" points="1267.6,-388.67 1267.6,-410.42 1294.6,-410.42 1294.6,-388.67 1267.6,-388.67"/>
<text xml:space="preserve" text-anchor="start" x="1270.6" y="-396.02" font-family="sans-serif" font-size="12.00">ACL</text>
<polygon fill="white" stroke="none" points="1268.23,-441.7 1268.23,-461.45 1279.73,-461.45 1279.73,-441.7 1268.23,-441.7"/>
<text xml:space="preserve" text-anchor="start" x="1270.23" y="-448.05" font-family="sans-serif" font-size="12.00">U</text>
</g>
<!-- PagamentosContext&#45;&gt;EcommerceContext -->
<g id="edge10" class="edge">
<title>PagamentosContext&#45;&gt;EcommerceContext</title>
<path fill="none" stroke="black" stroke-width="2" d="M1375.13,-474.91C1395.78,-465.33 1415.11,-451.95 1427.98,-433.3 1470.23,-372.05 1472.97,-329.36 1433.98,-265.98 1425.5,-252.2 1413.17,-241.19 1399.41,-232.42"/>
<text xml:space="preserve" text-anchor="middle" x="1536.53" y="-346.11" font-family="sans-serif" font-size="12.00"> &#160;&#160;&#160;&#160;&#160;&#160;&#160;&#160;&#160;&#160;&#160;&#160;&#160;&#160;&#160;&#160;&#160;&#160;&#160;&#160;&#160;&#160;&#160;&#160;&#160;&#160;&#160;&#160;&#160;&#160;&#160;&#160;&#160;&#160;&#160;&#160;&#160;&#160;&#160;</text>
<polygon fill="white" stroke="none" points="1378.79,-221.54 1378.79,-243.29 1393.04,-243.29 1393.04,-221.54 1378.79,-221.54"/>
<polyline fill="none" stroke="black" points="1393.04,-221.54 1393.04,-243.29"/>
<text xml:space="preserve" text-anchor="start" x="1381.79" y="-228.89" font-family="sans-serif" font-size="12.00">D</text>
<polygon fill="white" stroke="none" points="1393.04,-221.54 1393.04,-243.29 1420.04,-243.29 1420.04,-221.54 1393.04,-221.54"/>
<polygon fill="none" stroke="black" points="1393.04,-221.54 1393.04,-243.29 1420.04,-243.29 1420.04,-221.54 1393.04,-221.54"/>
<text xml:space="preserve" text-anchor="start" x="1396.04" y="-228.89" font-family="sans-serif" font-size="12.00">ACL</text>
<polygon fill="white" stroke="none" points="1369.38,-465.04 1369.38,-484.79 1380.88,-484.79 1380.88,-465.04 1369.38,-465.04"/>
<text xml:space="preserve" text-anchor="start" x="1371.38" y="-471.39" font-family="sans-serif" font-size="12.00">U</text>
</g>
<!-- PagamentosContext&#45;&gt;FarmaciaContext -->
<g id="edge11" class="edge">
<title>PagamentosContext&#45;&gt;FarmaciaContext</title>
<path fill="none" stroke="black" stroke-width="2" d="M1180.93,-462.82C1160.48,-453.91 1139.2,-443.87 1119.98,-433.3 1095.82,-420.01 1070.48,-403.05 1049.34,-387.96"/>
<text xml:space="preserve" text-anchor="middle" x="1194.98" y="-421.9" font-family="sans-serif" font-size="12.00"> &#160;&#160;&#160;&#160;&#160;&#160;&#160;&#160;&#160;&#160;&#160;&#160;&#160;&#160;&#160;&#160;&#160;&#160;&#160;&#160;&#160;&#160;&#160;&#160;&#160;&#160;&#160;&#160;&#160;&#160;&#160;&#160;&#160;&#160;&#160;&#160;&#160;&#160;&#160;</text>
<polygon fill="white" stroke="none" points="1028.72,-377.08 1028.72,-398.83 1042.97,-398.83 1042.97,-377.08 1028.72,-377.08"/>
<polyline fill="none" stroke="black" points="1042.97,-377.08 1042.97,-398.83"/>
<text xml:space="preserve" text-anchor="start" x="1031.72" y="-384.43" font-family="sans-serif" font-size="12.00">D</text>
<polygon fill="white" stroke="none" points="1042.97,-377.08 1042.97,-398.83 1069.97,-398.83 1069.97,-377.08 1042.97,-377.08"/>
<polygon fill="none" stroke="black" points="1042.97,-377.08 1042.97,-398.83 1069.97,-398.83 1069.97,-377.08 1042.97,-377.08"/>
<text xml:space="preserve" text-anchor="start" x="1045.97" y="-384.43" font-family="sans-serif" font-size="12.00">ACL</text>
<polygon fill="white" stroke="none" points="1175.18,-452.94 1175.18,-472.69 1186.68,-472.69 1186.68,-452.94 1175.18,-452.94"/>
<text xml:space="preserve" text-anchor="start" x="1177.18" y="-459.29" font-family="sans-serif" font-size="12.00">U</text>
</g>
</g>
</svg>
