<svg width="2000px" height="261px"
 viewBox="0.00 0.00 1925.00 251.00" xmlns="http://www.w3.org/2000/svg" xmlns:xlink="http://www.w3.org/1999/xlink">
<g id="graph0" class="graph" transform="scale(1.0 1.0) rotate(0) translate(4 246.94)">
<title>ContextMapGraph</title>
<polygon fill="white" stroke="none" points="-4,4 -4,-246.94 1920.55,-246.94 1920.55,4 -4,4"/>
<!-- AgendamentoServicos -->
<g id="node1" class="node">
<title>AgendamentoServicos</title>
<polygon fill="none" stroke="black" stroke-width="2" points="108.54,-87.95 99.74,-87 91.13,-85.94 82.74,-84.78 74.61,-83.51 66.77,-82.14 59.24,-80.68 52.07,-79.13 45.28,-77.5 38.9,-75.78 32.94,-73.99 27.43,-72.14 22.39,-70.22 17.84,-68.24 13.79,-66.21 10.25,-64.13 7.22,-62.01 4.73,-59.85 2.76,-57.66 1.31,-55.45 0.4,-53.22 0,-50.98 0.12,-48.73 0.74,-46.47 1.85,-44.22 3.44,-41.98 5.5,-39.75 7.99,-37.54 10.92,-35.35 14.24,-33.19 17.95,-31.06 22.03,-28.98 26.44,-26.93 31.16,-24.94 36.17,-22.99 41.44,-21.1 46.96,-19.28 52.68,-17.52 58.6,-15.83 64.69,-14.21 70.92,-12.67 77.27,-11.21 83.73,-9.84 90.26,-8.55 96.86,-7.36 103.5,-6.26 110.16,-5.26 116.84,-4.37 123.51,-3.57 130.16,-2.89 136.79,-2.31 143.37,-1.85 149.91,-1.49 156.39,-1.25 162.8,-1.13 169.14,-1.13 175.41,-1.24 181.59,-1.48 187.68,-1.83 193.68,-2.31 199.58,-2.9 205.38,-3.61 211.08,-4.44 216.68,-5.38 222.16,-6.44 227.53,-7.61 232.77,-8.89 237.9,-10.28 242.89,-11.77 247.75,-13.37 252.46,-15.06 257.02,-16.84 261.42,-18.71 265.66,-20.67 269.71,-22.7 273.57,-24.8 277.23,-26.97 280.67,-29.2 283.89,-31.49 286.86,-33.82 289.57,-36.19 292.02,-38.6 294.17,-41.03 296.03,-43.48 297.57,-45.94 298.77,-48.4 299.63,-50.86 300.12,-53.31 300.24,-55.73 299.97,-58.13 299.31,-60.5 298.23,-62.82 296.73,-65.1 294.8,-67.31 292.44,-69.47 289.64,-71.55 286.4,-73.55 282.72,-75.48 278.6,-77.31 274.04,-79.05 269.06,-80.69 263.65,-82.22 257.83,-83.64 251.62,-84.95 245.02,-86.14 238.06,-87.22 230.76,-88.16 223.14,-88.99 215.22,-89.68 207.04,-90.25 198.62,-90.68 189.98,-90.99 181.17,-91.16 172.22,-91.2 163.16,-91.12 154.02,-90.9 144.85,-90.56 135.67,-90.09 126.54,-89.49 117.48,-88.78 108.54,-87.95"/>
<text xml:space="preserve" text-anchor="middle" x="156.34" y="-40.53" font-family="sans-serif" font-size="16.00">AgendamentoServicos</text>
</g>
<!-- BanhoTosa -->
<g id="node2" class="node">
<title>BanhoTosa</title>
<polygon fill="none" stroke="black" stroke-width="2" points="383.9,-236.45 378.52,-235.74 373.23,-234.93 368.05,-234 363.01,-232.96 358.13,-231.82 353.42,-230.57 348.91,-229.22 344.6,-227.78 340.53,-226.25 336.69,-224.63 333.11,-222.93 329.81,-221.16 326.78,-219.31 324.03,-217.4 321.59,-215.42 319.44,-213.4 317.6,-211.32 316.07,-209.19 314.85,-207.03 313.94,-204.83 313.34,-202.61 313.04,-200.36 313.04,-198.1 313.33,-195.83 313.9,-193.55 314.76,-191.27 315.88,-189 317.25,-186.74 318.88,-184.5 320.73,-182.28 322.81,-180.08 325.09,-177.93 327.57,-175.81 330.22,-173.73 333.05,-171.71 336.02,-169.74 339.14,-167.82 342.38,-165.98 345.73,-164.2 349.18,-162.49 352.71,-160.86 356.32,-159.32 359.99,-157.86 363.71,-156.49 367.48,-155.21 371.27,-154.03 375.09,-152.96 378.92,-151.98 382.76,-151.12 386.61,-150.36 390.44,-149.71 394.27,-149.18 398.08,-148.77 401.87,-148.47 405.64,-148.29 409.38,-148.23 413.09,-148.29 416.76,-148.48 420.41,-148.78 424.01,-149.21 427.58,-149.76 431.1,-150.43 434.58,-151.21 438.01,-152.12 441.39,-153.14 444.72,-154.27 447.99,-155.51 451.2,-156.86 454.35,-158.31 457.43,-159.87 460.43,-161.52 463.35,-163.26 466.19,-165.09 468.93,-167 471.57,-168.99 474.1,-171.05 476.52,-173.18 478.8,-175.37 480.95,-177.61 482.95,-179.9 484.8,-182.23 486.48,-184.59 487.99,-186.98 489.3,-189.39 490.43,-191.81 491.34,-194.23 492.04,-196.66 492.51,-199.07 492.74,-201.47 492.73,-203.85 492.47,-206.19 491.96,-208.5 491.18,-210.76 490.13,-212.97 488.81,-215.12 487.21,-217.21 485.34,-219.22 483.19,-221.16 480.77,-223.02 478.08,-224.79 475.12,-226.47 471.9,-228.04 468.42,-229.52 464.7,-230.89 460.74,-232.15 456.56,-233.29 452.16,-234.32 447.58,-235.23 442.81,-236.02 437.87,-236.69 432.79,-237.23 427.59,-237.65 422.27,-237.94 416.87,-238.1 411.41,-238.13 405.9,-238.04 400.38,-237.83 394.85,-237.49 389.35,-237.03 383.9,-236.45"/>
<text xml:space="preserve" text-anchor="middle" x="405.34" y="-187.87" font-family="sans-serif" font-size="16.00">BanhoTosa</text>
</g>
<!-- CFMV -->
<g id="node3" class="node">
<title>CFMV</title>
<polygon fill="none" stroke="black" stroke-width="2" points="600.83,-235.36 597.22,-236.38 593.59,-237.27 589.93,-238.03 586.28,-238.67 582.64,-239.16 579.02,-239.53 575.44,-239.75 571.91,-239.83 568.45,-239.77 565.07,-239.56 561.77,-239.21 558.57,-238.72 555.48,-238.09 552.51,-237.32 549.66,-236.41 546.94,-235.36 544.37,-234.18 541.94,-232.88 539.65,-231.44 537.52,-229.89 535.55,-228.23 533.74,-226.46 532.08,-224.58 530.59,-222.61 529.25,-220.55 528.08,-218.41 527.06,-216.19 526.2,-213.91 525.49,-211.57 524.93,-209.18 524.52,-206.75 524.26,-204.28 524.13,-201.79 524.14,-199.28 524.28,-196.77 524.55,-194.25 524.94,-191.74 525.45,-189.25 526.08,-186.78 526.81,-184.35 527.65,-181.95 528.6,-179.6 529.64,-177.3 530.77,-175.06 532,-172.89 533.32,-170.79 534.73,-168.76 536.22,-166.82 537.79,-164.96 539.45,-163.19 541.18,-161.52 542.99,-159.95 544.87,-158.47 546.83,-157.1 548.87,-155.84 550.97,-154.68 553.15,-153.63 555.4,-152.7 557.71,-151.87 560.1,-151.15 562.55,-150.55 565.06,-150.06 567.63,-149.68 570.26,-149.42 572.95,-149.26 575.69,-149.21 578.48,-149.27 581.31,-149.44 584.18,-149.71 587.09,-150.08 590.02,-150.56 592.97,-151.14 595.94,-151.82 598.91,-152.59 601.88,-153.46 604.84,-154.42 607.79,-155.46 610.7,-156.6 613.57,-157.82 616.39,-159.12 619.16,-160.51 621.85,-161.97 624.46,-163.5 626.98,-165.11 629.39,-166.78 631.69,-168.52 633.86,-170.33 635.9,-172.19 637.79,-174.11 639.52,-176.08 641.08,-178.1 642.47,-180.16 643.68,-182.27 644.69,-184.41 645.51,-186.59 646.12,-188.79 646.51,-191.02 646.7,-193.26 646.66,-195.52 646.41,-197.79 645.94,-200.05 645.24,-202.32 644.32,-204.57 643.18,-206.81 641.83,-209.03 640.26,-211.22 638.49,-213.37 636.52,-215.49 634.36,-217.55 632.01,-219.57 629.49,-221.52 626.8,-223.41 623.96,-225.23 620.98,-226.96 617.86,-228.61 614.64,-230.17 611.3,-231.63 607.88,-232.98 604.38,-234.23 600.83,-235.36"/>
<text xml:space="preserve" text-anchor="middle" x="581.34" y="-187.87" font-family="sans-serif" font-size="16.00">CFMV</text>
</g>
<!-- ECommerce -->
<g id="node4" class="node">
<title>ECommerce</title>
<polygon fill="none" stroke="black" stroke-width="2" points="782.2,-237.03 776.41,-237.65 770.6,-238.14 764.81,-238.51 759.05,-238.75 753.34,-238.85 747.72,-238.83 742.19,-238.66 736.78,-238.37 731.51,-237.94 726.4,-237.38 721.46,-236.68 716.71,-235.85 712.17,-234.9 707.84,-233.82 703.75,-232.61 699.89,-231.29 696.29,-229.85 692.94,-228.29 689.86,-226.63 687.04,-224.87 684.49,-223.01 682.22,-221.06 680.22,-219.03 678.49,-216.92 677.03,-214.74 675.83,-212.49 674.9,-210.19 674.23,-207.84 673.8,-205.44 673.62,-203.02 673.68,-200.56 673.96,-198.09 674.47,-195.61 675.19,-193.13 676.11,-190.66 677.23,-188.19 678.53,-185.75 680.01,-183.34 681.65,-180.96 683.46,-178.63 685.42,-176.34 687.52,-174.11 689.75,-171.95 692.12,-169.85 694.61,-167.83 697.21,-165.89 699.93,-164.03 702.75,-162.27 705.67,-160.6 708.7,-159.02 711.81,-157.55 715.02,-156.18 718.31,-154.92 721.69,-153.78 725.15,-152.74 728.69,-151.82 732.31,-151.01 736.01,-150.33 739.78,-149.75 743.62,-149.3 747.53,-148.96 751.5,-148.75 755.54,-148.64 759.63,-148.66 763.78,-148.79 767.98,-149.03 772.23,-149.39 776.5,-149.86 780.81,-150.43 785.14,-151.11 789.49,-151.9 793.84,-152.79 798.18,-153.77 802.5,-154.85 806.8,-156.03 811.05,-157.29 815.25,-158.64 819.38,-160.08 823.43,-161.59 827.37,-163.18 831.21,-164.85 834.91,-166.58 838.47,-168.38 841.86,-170.24 845.08,-172.15 848.1,-174.12 850.91,-176.14 853.5,-178.2 855.85,-180.3 857.94,-182.44 859.76,-184.6 861.31,-186.8 862.55,-189.01 863.5,-191.24 864.13,-193.48 864.45,-195.73 864.43,-197.98 864.08,-200.22 863.4,-202.45 862.37,-204.66 861.01,-206.86 859.31,-209.03 857.28,-211.16 854.91,-213.26 852.22,-215.31 849.22,-217.31 845.91,-219.26 842.3,-221.14 838.42,-222.96 834.27,-224.7 829.86,-226.37 825.23,-227.95 820.38,-229.45 815.34,-230.85 810.12,-232.15 804.75,-233.35 799.25,-234.44 793.64,-235.42 787.95,-236.28 782.2,-237.03"/>
<text xml:space="preserve" text-anchor="middle" x="764.34" y="-187.87" font-family="sans-serif" font-size="16.00">ECommerce</text>
</g>
<!-- GestaoAssinaturas -->
<g id="node5" class="node">
<title>GestaoAssinaturas</title>
<polygon fill="none" stroke="black" stroke-width="2" points="904.45,-170.03 908.44,-167.48 912.71,-165.01 917.22,-162.63 921.97,-160.35 926.94,-158.17 932.11,-156.12 937.46,-154.19 942.97,-152.39 948.63,-150.74 954.42,-149.23 960.32,-147.88 966.32,-146.68 972.39,-145.64 978.52,-144.77 984.69,-144.07 990.89,-143.54 997.09,-143.17 1003.29,-142.98 1009.47,-142.95 1015.62,-143.09 1021.71,-143.4 1027.74,-143.87 1033.7,-144.49 1039.56,-145.26 1045.33,-146.19 1050.98,-147.25 1056.51,-148.45 1061.91,-149.77 1067.16,-151.21 1072.26,-152.77 1077.2,-154.43 1081.97,-156.19 1086.55,-158.04 1090.95,-159.96 1095.15,-161.96 1099.15,-164.02 1102.93,-166.13 1106.5,-168.29 1109.84,-170.49 1112.95,-172.72 1115.82,-174.97 1118.44,-177.23 1120.82,-179.51 1122.93,-181.78 1124.78,-184.05 1126.37,-186.31 1127.68,-188.55 1128.71,-190.77 1129.45,-192.97 1129.91,-195.14 1130.07,-197.27 1129.94,-199.36 1129.51,-201.42 1128.78,-203.43 1127.74,-205.4 1126.4,-207.32 1124.75,-209.2 1122.79,-211.02 1120.53,-212.79 1117.96,-214.51 1115.1,-216.18 1111.93,-217.79 1108.47,-219.34 1104.72,-220.84 1100.68,-222.28 1096.37,-223.67 1091.79,-224.99 1086.96,-226.26 1081.87,-227.46 1076.55,-228.6 1071.01,-229.68 1065.25,-230.69 1059.3,-231.63 1053.17,-232.5 1046.88,-233.29 1040.44,-234.01 1033.88,-234.66 1027.21,-235.22 1020.46,-235.7 1013.63,-236.09 1006.77,-236.39 999.88,-236.59 992.99,-236.7 986.13,-236.71 979.31,-236.61 972.56,-236.41 965.9,-236.09 959.35,-235.67 952.95,-235.13 946.7,-234.47 940.63,-233.69 934.77,-232.79 929.13,-231.77 923.74,-230.63 918.6,-229.36 913.75,-227.97 909.19,-226.46 904.95,-224.83 901.03,-223.09 897.45,-221.23 894.22,-219.26 891.36,-217.18 888.87,-215 886.75,-212.73 885.02,-210.36 883.68,-207.92 882.72,-205.4 882.16,-202.81 881.99,-200.16 882.22,-197.46 882.82,-194.72 883.81,-191.96 885.18,-189.17 886.91,-186.37 889,-183.58 891.44,-180.8 894.22,-178.04 897.32,-175.32 900.73,-172.65 904.45,-170.03"/>
<text xml:space="preserve" text-anchor="middle" x="1010.34" y="-187.87" font-family="sans-serif" font-size="16.00">GestaoAssinaturas</text>
</g>
<!-- GestaoEntregas -->
<g id="node6" class="node">
<title>GestaoEntregas</title>
<polygon fill="none" stroke="black" stroke-width="2" points="1353.41,-223.98 1348.56,-226.13 1343.53,-228.19 1338.32,-230.14 1332.96,-231.97 1327.48,-233.68 1321.88,-235.26 1316.2,-236.7 1310.45,-237.99 1304.65,-239.14 1298.82,-240.13 1292.97,-240.97 1287.13,-241.64 1281.32,-242.15 1275.54,-242.5 1269.82,-242.67 1264.16,-242.68 1258.6,-242.53 1253.13,-242.21 1247.77,-241.73 1242.53,-241.08 1237.43,-240.29 1232.46,-239.34 1227.65,-238.24 1223,-237 1218.52,-235.63 1214.21,-234.13 1210.08,-232.51 1206.14,-230.78 1202.38,-228.94 1198.82,-227 1195.46,-224.98 1192.3,-222.87 1189.34,-220.69 1186.59,-218.46 1184.05,-216.17 1181.72,-213.83 1179.6,-211.46 1177.69,-209.06 1176.01,-206.65 1174.53,-204.22 1173.28,-201.79 1172.25,-199.37 1171.44,-196.96 1170.85,-194.57 1170.49,-192.21 1170.36,-189.88 1170.45,-187.58 1170.78,-185.33 1171.33,-183.13 1172.12,-180.98 1173.14,-178.89 1174.4,-176.86 1175.9,-174.89 1177.64,-172.99 1179.61,-171.16 1181.82,-169.4 1184.27,-167.71 1186.96,-166.09 1189.88,-164.55 1193.04,-163.09 1196.44,-161.7 1200.06,-160.39 1203.9,-159.16 1207.96,-158.01 1212.24,-156.93 1216.73,-155.94 1221.41,-155.02 1226.29,-154.19 1231.34,-153.44 1236.57,-152.76 1241.95,-152.17 1247.48,-151.66 1253.14,-151.23 1258.92,-150.89 1264.8,-150.63 1270.76,-150.45 1276.79,-150.37 1282.86,-150.37 1288.97,-150.46 1295.08,-150.64 1301.19,-150.91 1307.26,-151.28 1313.27,-151.74 1319.22,-152.29 1325.06,-152.95 1330.79,-153.7 1336.38,-154.55 1341.81,-155.51 1347.05,-156.56 1352.09,-157.72 1356.92,-158.97 1361.5,-160.33 1365.82,-161.79 1369.86,-163.35 1373.61,-165 1377.05,-166.75 1380.16,-168.6 1382.94,-170.53 1385.38,-172.56 1387.46,-174.66 1389.17,-176.85 1390.51,-179.11 1391.48,-181.43 1392.07,-183.82 1392.27,-186.27 1392.09,-188.76 1391.54,-191.3 1390.61,-193.87 1389.31,-196.46 1387.64,-199.07 1385.62,-201.69 1383.25,-204.3 1380.55,-206.91 1377.52,-209.49 1374.19,-212.04 1370.55,-214.55 1366.64,-217.01 1362.47,-219.4 1358.06,-221.73 1353.41,-223.98"/>
<text xml:space="preserve" text-anchor="middle" x="1274.34" y="-187.87" font-family="sans-serif" font-size="16.00">GestaoEntregas</text>
</g>
<!-- GestaoLojas -->
<g id="node7" class="node">
<title>GestaoLojas</title>
<polygon fill="none" stroke="black" stroke-width="2" points="1484.98,-150.03 1490.67,-149.11 1496.41,-148.32 1502.16,-147.65 1507.9,-147.12 1513.62,-146.72 1519.29,-146.45 1524.89,-146.33 1530.39,-146.34 1535.79,-146.5 1541.05,-146.79 1546.17,-147.23 1551.12,-147.8 1555.9,-148.52 1560.48,-149.37 1564.86,-150.35 1569.02,-151.47 1572.95,-152.72 1576.65,-154.09 1580.11,-155.58 1583.32,-157.19 1586.28,-158.9 1588.98,-160.72 1591.43,-162.64 1593.62,-164.65 1595.55,-166.75 1597.23,-168.92 1598.66,-171.16 1599.84,-173.46 1600.78,-175.82 1601.48,-178.23 1601.94,-180.67 1602.18,-183.14 1602.2,-185.63 1602.01,-188.14 1601.61,-190.65 1601.01,-193.16 1600.22,-195.65 1599.25,-198.13 1598.1,-200.58 1596.78,-202.99 1595.3,-205.37 1593.66,-207.69 1591.87,-209.96 1589.94,-212.17 1587.87,-214.31 1585.66,-216.37 1583.32,-218.36 1580.86,-220.26 1578.27,-222.08 1575.57,-223.8 1572.75,-225.42 1569.82,-226.95 1566.77,-228.37 1563.62,-229.69 1560.35,-230.9 1556.99,-232 1553.52,-232.99 1549.94,-233.86 1546.27,-234.63 1542.51,-235.28 1538.64,-235.81 1534.69,-236.24 1530.65,-236.55 1526.53,-236.74 1522.32,-236.83 1518.05,-236.8 1513.7,-236.67 1509.3,-236.43 1504.84,-236.08 1500.34,-235.63 1495.8,-235.07 1491.23,-234.41 1486.65,-233.66 1482.07,-232.81 1477.5,-231.86 1472.95,-230.82 1468.44,-229.7 1463.97,-228.48 1459.58,-227.19 1455.27,-225.81 1451.06,-224.35 1446.96,-222.82 1443,-221.22 1439.19,-219.55 1435.54,-217.81 1432.08,-216.01 1428.82,-214.15 1425.78,-212.23 1422.97,-210.26 1420.41,-208.25 1418.11,-206.19 1416.09,-204.08 1414.36,-201.95 1412.94,-199.78 1411.82,-197.58 1411.03,-195.37 1410.56,-193.13 1410.44,-190.88 1410.65,-188.63 1411.21,-186.37 1412.11,-184.12 1413.36,-181.87 1414.95,-179.65 1416.89,-177.44 1419.15,-175.26 1421.75,-173.11 1424.67,-171 1427.89,-168.94 1431.41,-166.93 1435.22,-164.98 1439.29,-163.1 1443.62,-161.28 1448.18,-159.55 1452.95,-157.89 1457.92,-156.33 1463.07,-154.86 1468.37,-153.49 1473.81,-152.22 1479.35,-151.07 1484.98,-150.03"/>
<text xml:space="preserve" text-anchor="middle" x="1512.34" y="-187.87" font-family="sans-serif" font-size="16.00">GestaoLojas</text>
</g>
<!-- GestaoPasseadores -->
<g id="node8" class="node">
<title>GestaoPasseadores</title>
<polygon fill="none" stroke="black" stroke-width="2" points="1719.58,-152.32 1727.08,-151.02 1734.68,-149.84 1742.36,-148.79 1750.08,-147.87 1757.81,-147.08 1765.53,-146.43 1773.21,-145.93 1780.81,-145.56 1788.32,-145.35 1795.7,-145.28 1802.94,-145.36 1810,-145.6 1816.88,-145.98 1823.54,-146.51 1829.97,-147.19 1836.16,-148.01 1842.08,-148.98 1847.73,-150.08 1853.1,-151.32 1858.16,-152.69 1862.93,-154.19 1867.38,-155.81 1871.52,-157.54 1875.34,-159.38 1878.84,-161.33 1882.02,-163.36 1884.88,-165.48 1887.42,-167.68 1889.65,-169.96 1891.56,-172.29 1893.17,-174.67 1894.48,-177.11 1895.49,-179.57 1896.22,-182.07 1896.66,-184.58 1896.82,-187.1 1896.72,-189.63 1896.36,-192.15 1895.74,-194.65 1894.88,-197.14 1893.77,-199.59 1892.43,-202 1890.86,-204.37 1889.07,-206.69 1887.05,-208.95 1884.82,-211.14 1882.38,-213.27 1879.74,-215.32 1876.89,-217.3 1873.83,-219.18 1870.58,-220.99 1867.14,-222.7 1863.5,-224.31 1859.66,-225.83 1855.64,-227.25 1851.43,-228.57 1847.03,-229.79 1842.44,-230.9 1837.68,-231.91 1832.73,-232.81 1827.62,-233.6 1822.33,-234.29 1816.87,-234.87 1811.26,-235.35 1805.49,-235.72 1799.58,-235.99 1793.53,-236.15 1787.35,-236.21 1781.06,-236.17 1774.66,-236.03 1768.17,-235.79 1761.61,-235.45 1754.99,-235.01 1748.33,-234.48 1741.65,-233.86 1734.95,-233.14 1728.28,-232.33 1721.64,-231.44 1715.06,-230.45 1708.57,-229.38 1702.18,-228.23 1695.92,-226.99 1689.81,-225.67 1683.89,-224.28 1678.17,-222.81 1672.68,-221.26 1667.44,-219.64 1662.48,-217.95 1657.83,-216.19 1653.49,-214.37 1649.51,-212.49 1645.89,-210.54 1642.66,-208.54 1639.83,-206.49 1637.42,-204.4 1635.45,-202.25 1633.92,-200.07 1632.85,-197.85 1632.26,-195.61 1632.13,-193.33 1632.49,-191.04 1633.32,-188.73 1634.64,-186.42 1636.44,-184.1 1638.7,-181.79 1641.44,-179.48 1644.63,-177.2 1648.26,-174.94 1652.33,-172.71 1656.81,-170.52 1661.69,-168.37 1666.94,-166.28 1672.55,-164.25 1678.48,-162.28 1684.73,-160.4 1691.25,-158.59 1698.03,-156.87 1705.03,-155.25 1712.22,-153.73 1719.58,-152.32"/>
<text xml:space="preserve" text-anchor="middle" x="1774.34" y="-187.87" font-family="sans-serif" font-size="16.00">GestaoPasseadores</text>
</g>
<!-- GestaoVeterinarios -->
<g id="node9" class="node">
<title>GestaoVeterinarios</title>
<polygon fill="none" stroke="black" stroke-width="2" points="96.58,-232.4 89.37,-231.03 82.38,-229.56 75.62,-228 69.13,-226.34 62.93,-224.61 57.05,-222.79 51.51,-220.91 46.34,-218.96 41.55,-216.95 37.17,-214.89 33.21,-212.78 29.68,-210.63 26.6,-208.45 23.97,-206.24 21.8,-204.02 20.11,-201.77 18.88,-199.52 18.12,-197.26 17.83,-195.01 18,-192.76 18.63,-190.52 19.71,-188.31 21.23,-186.11 23.17,-183.94 25.52,-181.8 28.26,-179.7 31.39,-177.64 34.87,-175.63 38.69,-173.66 42.82,-171.74 47.25,-169.88 51.96,-168.08 56.91,-166.34 62.09,-164.67 67.48,-163.07 73.04,-161.54 78.77,-160.08 84.63,-158.7 90.6,-157.41 96.66,-156.19 102.8,-155.07 108.98,-154.03 115.2,-153.08 121.42,-152.23 127.65,-151.48 133.85,-150.82 140.02,-150.26 146.14,-149.81 152.2,-149.46 158.19,-149.22 164.09,-149.09 169.91,-149.06 175.62,-149.15 181.23,-149.34 186.72,-149.65 192.09,-150.08 197.34,-150.61 202.46,-151.26 207.45,-152.03 212.31,-152.9 217.02,-153.89 221.6,-154.99 226.03,-156.2 230.32,-157.52 234.46,-158.94 238.45,-160.47 242.28,-162.09 245.96,-163.81 249.47,-165.63 252.82,-167.53 256,-169.52 259,-171.58 261.81,-173.72 264.44,-175.93 266.87,-178.2 269.1,-180.52 271.11,-182.9 272.91,-185.31 274.47,-187.76 275.79,-190.24 276.86,-192.73 277.67,-195.24 278.22,-197.75 278.48,-200.26 278.46,-202.75 278.13,-205.22 277.5,-207.66 276.55,-210.07 275.27,-212.43 273.67,-214.73 271.73,-216.97 269.44,-219.14 266.81,-221.24 263.84,-223.25 260.51,-225.16 256.83,-226.99 252.81,-228.7 248.45,-230.31 243.75,-231.8 238.72,-233.17 233.37,-234.42 227.72,-235.54 221.77,-236.52 215.54,-237.37 209.05,-238.09 202.32,-238.66 195.36,-239.1 188.21,-239.39 180.87,-239.55 173.39,-239.56 165.78,-239.44 158.08,-239.17 150.31,-238.77 142.5,-238.24 134.68,-237.57 126.89,-236.78 119.15,-235.86 111.5,-234.82 103.96,-233.67 96.58,-232.4"/>
<text xml:space="preserve" text-anchor="middle" x="156.34" y="-187.87" font-family="sans-serif" font-size="16.00">GestaoVeterinarios</text>
</g>
<!-- GestaoVeterinarios&#45;&gt;AgendamentoServicos -->
<g id="edge1" class="edge">
<title>GestaoVeterinarios&#45;&gt;AgendamentoServicos</title>
<path fill="none" stroke="black" stroke-width="2" d="M156.34,-149.12C156.34,-130.95 156.34,-109.77 156.34,-91.39"/>
<text xml:space="preserve" text-anchor="middle" x="231.34" y="-113.55" font-family="sans-serif" font-size="12.00"> &#160;&#160;&#160;&#160;&#160;&#160;&#160;&#160;&#160;&#160;&#160;&#160;&#160;&#160;&#160;&#160;&#160;&#160;&#160;&#160;&#160;&#160;&#160;&#160;&#160;&#160;&#160;&#160;&#160;&#160;&#160;&#160;&#160;&#160;&#160;&#160;&#160;&#160;&#160;</text>
<polygon fill="white" stroke="none" points="150.22,-81.51 150.22,-101.26 162.47,-101.26 162.47,-81.51 150.22,-81.51"/>
<text xml:space="preserve" text-anchor="start" x="152.22" y="-87.86" font-family="sans-serif" font-size="12.00">D</text>
<polygon fill="white" stroke="none" points="150.59,-139.25 150.59,-159 162.09,-159 162.09,-139.25 150.59,-139.25"/>
<text xml:space="preserve" text-anchor="start" x="152.59" y="-145.6" font-family="sans-serif" font-size="12.00">U</text>
</g>
</g>
</svg>
