<svg width="2000px" height="242px"
 viewBox="0.00 0.00 2070.05 249.78" xmlns="http://www.w3.org/2000/svg" xmlns:xlink="http://www.w3.org/1999/xlink">
<g id="graph0" class="graph" transform="scale(1.0 1.0) rotate(0) translate(4 245.78)">
<title>ContextMapGraph</title>
<polygon fill="white" stroke="transparent" points="-4,4 -4,-245.78 2066.05,-245.78 2066.05,4 -4,4"/>
<!-- AgendamentoServicos -->
<g id="node1" class="node">
<title>AgendamentoServicos</title>
<polygon fill="none" stroke="black" stroke-width="2" points="268.38,-83.97 259.79,-85.63 251,-87.18 242.05,-88.61 232.97,-89.92 223.8,-91.1 214.57,-92.14 205.31,-93.04 196.06,-93.8 186.85,-94.42 177.71,-94.88 168.67,-95.19 159.75,-95.34 151,-95.35 142.42,-95.19 134.04,-94.88 125.89,-94.42 117.99,-93.8 110.35,-93.04 102.99,-92.13 95.92,-91.07 89.16,-89.88 82.72,-88.55 76.61,-87.1 70.83,-85.53 65.39,-83.84 60.3,-82.04 55.56,-80.14 51.16,-78.15 47.13,-76.07 43.44,-73.92 40.1,-71.69 37.12,-69.41 34.47,-67.08 32.18,-64.7 30.22,-62.3 28.6,-59.86 27.31,-57.42 26.35,-54.96 25.72,-52.5 25.4,-50.06 25.4,-47.62 25.72,-45.22 26.35,-42.84 27.28,-40.5 28.52,-38.21 30.06,-35.96 31.9,-33.77 34.04,-31.64 36.48,-29.58 39.22,-27.59 42.25,-25.67 45.57,-23.83 49.19,-22.07 53.11,-20.39 57.31,-18.8 61.81,-17.3 66.6,-15.89 71.67,-14.57 77.03,-13.33 82.67,-12.2 88.59,-11.15 94.78,-10.2 101.23,-9.34 107.95,-8.58 114.91,-7.91 122.11,-7.33 129.54,-6.85 137.18,-6.46 145.03,-6.16 153.05,-5.95 161.25,-5.83 169.6,-5.81 178.07,-5.87 186.65,-6.03 195.31,-6.27 204.02,-6.6 212.77,-7.03 221.53,-7.54 230.25,-8.13 238.93,-8.82 247.52,-9.59 255.99,-10.45 264.31,-11.4 272.46,-12.43 280.39,-13.54 288.08,-14.75 295.5,-16.03 302.61,-17.4 309.38,-18.85 315.79,-20.38 321.8,-21.98 327.38,-23.67 332.52,-25.43 337.19,-27.26 341.35,-29.16 345.01,-31.13 348.12,-33.15 350.69,-35.24 352.69,-37.38 354.12,-39.58 354.96,-41.81 355.21,-44.09 354.87,-46.4 353.94,-48.74 352.41,-51.1 350.3,-53.48 347.62,-55.86 344.37,-58.24 340.56,-60.62 336.22,-62.98 331.36,-65.32 326,-67.63 320.17,-69.89 313.89,-72.11 307.18,-74.28 300.09,-76.38 292.63,-78.4 284.83,-80.35 276.74,-82.21 268.38,-83.97"/>
<text text-anchor="middle" x="177.57" y="-43.82" font-family="sans-serif" font-size="16.00">AgendamentoServicos</text>
</g>
<!-- BanhoTosa -->
<g id="node2" class="node">
<title>BanhoTosa</title>
<polygon fill="none" stroke="black" stroke-width="2" points="469.85,-235.94 463.92,-236.55 457.98,-237.03 452.05,-237.39 446.15,-237.62 440.31,-237.72 434.55,-237.7 428.89,-237.54 423.35,-237.25 417.96,-236.83 412.72,-236.28 407.67,-235.61 402.81,-234.8 398.16,-233.87 393.73,-232.82 389.54,-231.64 385.59,-230.35 381.9,-228.95 378.47,-227.44 375.32,-225.82 372.43,-224.1 369.83,-222.29 367.5,-220.39 365.45,-218.41 363.68,-216.36 362.18,-214.23 360.96,-212.04 360,-209.8 359.31,-207.51 358.88,-205.18 358.7,-202.82 358.75,-200.43 359.05,-198.02 359.56,-195.61 360.3,-193.19 361.24,-190.78 362.39,-188.38 363.72,-186 365.23,-183.65 366.92,-181.33 368.77,-179.06 370.77,-176.83 372.92,-174.66 375.21,-172.55 377.63,-170.51 380.18,-168.54 382.85,-166.65 385.63,-164.84 388.52,-163.12 391.51,-161.49 394.6,-159.96 397.79,-158.53 401.07,-157.2 404.44,-155.97 407.9,-154.85 411.45,-153.84 415.07,-152.95 418.78,-152.16 422.56,-151.49 426.42,-150.93 430.35,-150.49 434.35,-150.16 438.42,-149.95 442.56,-149.85 446.75,-149.87 451,-149.99 455.3,-150.23 459.64,-150.58 464.02,-151.03 468.43,-151.59 472.86,-152.26 477.31,-153.02 481.76,-153.89 486.21,-154.85 490.64,-155.9 495.03,-157.05 499.39,-158.28 503.69,-159.59 507.91,-160.99 512.06,-162.47 516.1,-164.02 520.02,-165.64 523.81,-167.32 527.45,-169.07 530.93,-170.89 534.22,-172.75 537.32,-174.67 540.2,-176.63 542.84,-178.64 545.25,-180.69 547.39,-182.77 549.25,-184.88 550.83,-187.02 552.11,-189.17 553.08,-191.35 553.73,-193.53 554.05,-195.72 554.03,-197.91 553.68,-200.09 552.98,-202.26 551.93,-204.42 550.53,-206.56 548.79,-208.67 546.71,-210.75 544.29,-212.79 541.53,-214.79 538.46,-216.74 535.07,-218.64 531.38,-220.47 527.4,-222.24 523.15,-223.94 518.65,-225.56 513.9,-227.11 508.94,-228.56 503.77,-229.93 498.43,-231.19 492.94,-232.36 487.3,-233.42 481.56,-234.38 475.74,-235.22 469.85,-235.94"/>
<text text-anchor="middle" x="451.57" y="-189.21" font-family="sans-serif" font-size="16.00">BanhoTosa</text>
</g>
<!-- CFMV -->
<g id="node3" class="node">
<title>CFMV</title>
<polygon fill="none" stroke="black" stroke-width="2" points="696.81,-172.23 698.85,-174.73 700.72,-177.26 702.41,-179.83 703.92,-182.42 705.24,-185.02 706.36,-187.63 707.29,-190.22 708,-192.8 708.5,-195.35 708.79,-197.87 708.86,-200.35 708.72,-202.77 708.35,-205.14 707.78,-207.44 706.98,-209.68 705.97,-211.83 704.76,-213.9 703.34,-215.89 701.71,-217.78 699.9,-219.58 697.9,-221.29 695.72,-222.89 693.37,-224.39 690.85,-225.79 688.19,-227.08 685.38,-228.27 682.44,-229.36 679.39,-230.34 676.22,-231.21 672.96,-231.99 669.61,-232.66 666.2,-233.23 662.72,-233.7 659.2,-234.08 655.64,-234.35 652.06,-234.54 648.48,-234.63 644.89,-234.64 641.32,-234.55 637.77,-234.39 634.27,-234.13 630.8,-233.8 627.4,-233.38 624.06,-232.89 620.8,-232.31 617.63,-231.66 614.54,-230.94 611.56,-230.14 608.69,-229.27 605.93,-228.32 603.28,-227.3 600.76,-226.21 598.37,-225.05 596.12,-223.82 594,-222.52 592.01,-221.15 590.17,-219.7 588.48,-218.2 586.92,-216.62 585.51,-214.98 584.25,-213.27 583.13,-211.5 582.17,-209.66 581.34,-207.77 580.66,-205.82 580.13,-203.81 579.74,-201.76 579.49,-199.65 579.39,-197.5 579.42,-195.31 579.59,-193.08 579.9,-190.82 580.35,-188.54 580.93,-186.24 581.64,-183.92 582.48,-181.6 583.45,-179.28 584.55,-176.96 585.78,-174.67 587.12,-172.39 588.6,-170.15 590.19,-167.95 591.9,-165.8 593.73,-163.71 595.67,-161.68 597.72,-159.72 599.88,-157.85 602.15,-156.07 604.52,-154.39 607,-152.82 609.57,-151.36 612.23,-150.03 614.98,-148.82 617.82,-147.75 620.73,-146.82 623.72,-146.04 626.78,-145.41 629.9,-144.93 633.08,-144.61 636.3,-144.45 639.56,-144.46 642.86,-144.63 646.18,-144.96 649.52,-145.45 652.86,-146.11 656.2,-146.93 659.53,-147.9 662.83,-149.03 666.1,-150.3 669.33,-151.72 672.51,-153.28 675.61,-154.96 678.64,-156.78 681.59,-158.7 684.43,-160.74 687.17,-162.88 689.78,-165.1 692.27,-167.41 694.62,-169.79 696.81,-172.23"/>
<text text-anchor="middle" x="640.57" y="-189.21" font-family="sans-serif" font-size="16.00">CFMV</text>
</g>
<!-- ECommerce -->
<g id="node4" class="node">
<title>ECommerce</title>
<polygon fill="none" stroke="black" stroke-width="2" points="822.01,-236.5 815.52,-236.21 809.1,-235.81 802.78,-235.28 796.58,-234.64 790.53,-233.89 784.65,-233.02 778.97,-232.05 773.5,-230.97 768.27,-229.78 763.3,-228.5 758.61,-227.12 754.2,-225.64 750.09,-224.08 746.3,-222.43 742.84,-220.71 739.71,-218.9 736.93,-217.03 734.48,-215.09 732.39,-213.09 730.65,-211.04 729.26,-208.94 728.21,-206.79 727.51,-204.61 727.15,-202.4 727.12,-200.16 727.41,-197.9 728.01,-195.63 728.92,-193.35 730.12,-191.07 731.59,-188.79 733.34,-186.53 735.33,-184.29 737.57,-182.06 740.02,-179.87 742.69,-177.71 745.55,-175.6 748.59,-173.53 751.8,-171.52 755.15,-169.56 758.65,-167.67 762.27,-165.84 766,-164.09 769.83,-162.42 773.75,-160.83 777.74,-159.33 781.8,-157.92 785.92,-156.61 790.09,-155.39 794.3,-154.28 798.55,-153.27 802.83,-152.38 807.12,-151.59 811.44,-150.91 815.77,-150.35 820.1,-149.91 824.45,-149.59 828.79,-149.38 833.14,-149.29 837.48,-149.33 841.82,-149.48 846.14,-149.75 850.46,-150.14 854.76,-150.65 859.04,-151.28 863.3,-152.02 867.53,-152.87 871.73,-153.83 875.9,-154.91 880.02,-156.08 884.09,-157.36 888.1,-158.74 892.05,-160.21 895.92,-161.77 899.71,-163.42 903.4,-165.14 906.99,-166.95 910.46,-168.83 913.81,-170.77 917.01,-172.78 920.05,-174.84 922.92,-176.96 925.61,-179.11 928.11,-181.31 930.39,-183.54 932.44,-185.79 934.26,-188.07 935.82,-190.36 937.12,-192.65 938.13,-194.95 938.86,-197.24 939.28,-199.52 939.39,-201.78 939.18,-204.02 938.64,-206.23 937.77,-208.4 936.55,-210.52 934.99,-212.6 933.09,-214.63 930.84,-216.59 928.24,-218.49 925.31,-220.32 922.04,-222.08 918.44,-223.75 914.52,-225.34 910.3,-226.84 905.77,-228.24 900.97,-229.55 895.9,-230.76 890.58,-231.86 885.03,-232.86 879.28,-233.75 873.33,-234.52 867.23,-235.18 860.98,-235.73 854.62,-236.16 848.17,-236.46 841.66,-236.65 835.11,-236.72 828.55,-236.67 822.01,-236.5"/>
<text text-anchor="middle" x="833.57" y="-189.21" font-family="sans-serif" font-size="16.00">ECommerce</text>
</g>
<!-- GestaoAssinaturas -->
<g id="node5" class="node">
<title>GestaoAssinaturas</title>
<polygon fill="none" stroke="black" stroke-width="2" points="964.01,-201.66 962.1,-198.85 960.58,-196.04 959.45,-193.23 958.72,-190.44 958.4,-187.67 958.48,-184.95 958.98,-182.27 959.88,-179.65 961.21,-177.09 962.94,-174.61 965.08,-172.22 967.62,-169.92 970.55,-167.72 973.88,-165.62 977.59,-163.64 981.66,-161.77 986.09,-160.02 990.87,-158.4 995.98,-156.91 1001.4,-155.54 1007.11,-154.31 1013.1,-153.21 1019.36,-152.23 1025.85,-151.4 1032.56,-150.69 1039.47,-150.11 1046.55,-149.66 1053.78,-149.33 1061.13,-149.13 1068.6,-149.04 1076.14,-149.07 1083.73,-149.2 1091.36,-149.45 1098.99,-149.8 1106.61,-150.25 1114.19,-150.79 1121.69,-151.42 1129.12,-152.13 1136.43,-152.93 1143.61,-153.81 1150.63,-154.75 1157.48,-155.77 1164.14,-156.86 1170.59,-158 1176.8,-159.21 1182.77,-160.47 1188.48,-161.79 1193.91,-163.16 1199.05,-164.57 1203.89,-166.04 1208.42,-167.55 1212.62,-169.1 1216.49,-170.7 1220.02,-172.33 1223.21,-174.01 1226.04,-175.73 1228.52,-177.48 1230.63,-179.27 1232.39,-181.1 1233.79,-182.96 1234.82,-184.86 1235.49,-186.78 1235.8,-188.74 1235.76,-190.72 1235.36,-192.73 1234.61,-194.77 1233.51,-196.82 1232.08,-198.9 1230.31,-200.99 1228.21,-203.09 1225.79,-205.19 1223.07,-207.3 1220.04,-209.4 1216.71,-211.5 1213.1,-213.58 1209.21,-215.64 1205.05,-217.68 1200.64,-219.68 1195.98,-221.64 1191.09,-223.55 1185.98,-225.41 1180.65,-227.2 1175.12,-228.93 1169.4,-230.57 1163.51,-232.13 1157.46,-233.6 1151.26,-234.96 1144.92,-236.21 1138.45,-237.35 1131.88,-238.36 1125.22,-239.25 1118.48,-240 1111.67,-240.6 1104.81,-241.06 1097.92,-241.37 1091.01,-241.52 1084.1,-241.51 1077.21,-241.34 1070.34,-241.01 1063.53,-240.51 1056.78,-239.85 1050.12,-239.03 1043.55,-238.04 1037.11,-236.9 1030.8,-235.59 1024.64,-234.14 1018.66,-232.53 1012.86,-230.79 1007.27,-228.9 1001.9,-226.89 996.78,-224.76 991.91,-222.51 987.32,-220.16 983.01,-217.72 979,-215.19 975.32,-212.59 971.96,-209.92 968.95,-207.2 966.3,-204.45 964.01,-201.66"/>
<text text-anchor="middle" x="1099.57" y="-189.21" font-family="sans-serif" font-size="16.00">GestaoAssinaturas</text>
</g>
<!-- GestaoEntregas -->
<g id="node6" class="node">
<title>GestaoEntregas</title>
<polygon fill="none" stroke="black" stroke-width="2" points="1302.04,-162.62 1307.41,-160.51 1312.98,-158.49 1318.75,-156.59 1324.68,-154.79 1330.75,-153.12 1336.94,-151.57 1343.23,-150.16 1349.6,-148.89 1356.02,-147.77 1362.48,-146.8 1368.95,-145.98 1375.41,-145.32 1381.85,-144.82 1388.25,-144.48 1394.58,-144.31 1400.84,-144.3 1407,-144.45 1413.06,-144.76 1418.99,-145.24 1424.79,-145.87 1430.44,-146.65 1435.93,-147.58 1441.26,-148.65 1446.41,-149.86 1451.37,-151.21 1456.14,-152.67 1460.71,-154.26 1465.08,-155.96 1469.24,-157.76 1473.18,-159.66 1476.9,-161.64 1480.4,-163.7 1483.67,-165.83 1486.72,-168.02 1489.53,-170.27 1492.11,-172.55 1494.46,-174.87 1496.57,-177.22 1498.44,-179.59 1500.06,-181.96 1501.45,-184.34 1502.59,-186.71 1503.49,-189.07 1504.14,-191.41 1504.54,-193.73 1504.69,-196.01 1504.58,-198.25 1504.23,-200.46 1503.61,-202.61 1502.74,-204.72 1501.6,-206.76 1500.21,-208.75 1498.55,-210.68 1496.63,-212.54 1494.45,-214.34 1492,-216.06 1489.28,-217.72 1486.31,-219.3 1483.07,-220.81 1479.57,-222.24 1475.82,-223.6 1471.81,-224.88 1467.56,-226.09 1463.06,-227.22 1458.32,-228.27 1453.36,-229.24 1448.17,-230.14 1442.77,-230.95 1437.18,-231.69 1431.39,-232.35 1425.43,-232.93 1419.31,-233.43 1413.04,-233.85 1406.65,-234.19 1400.14,-234.44 1393.54,-234.61 1386.87,-234.7 1380.14,-234.7 1373.38,-234.61 1366.61,-234.43 1359.86,-234.17 1353.13,-233.81 1346.47,-233.36 1339.89,-232.81 1333.42,-232.17 1327.08,-231.43 1320.9,-230.6 1314.89,-229.67 1309.08,-228.63 1303.5,-227.5 1298.16,-226.27 1293.09,-224.94 1288.31,-223.51 1283.83,-221.99 1279.68,-220.37 1275.87,-218.65 1272.42,-216.85 1269.34,-214.95 1266.65,-212.97 1264.35,-210.91 1262.45,-208.77 1260.97,-206.56 1259.9,-204.28 1259.25,-201.94 1259.02,-199.54 1259.21,-197.1 1259.83,-194.62 1260.86,-192.1 1262.3,-189.56 1264.14,-187 1266.38,-184.44 1269,-181.88 1272,-179.33 1275.35,-176.8 1279.04,-174.31 1283.06,-171.85 1287.39,-169.44 1292.01,-167.1 1296.9,-164.82 1302.04,-162.62"/>
<text text-anchor="middle" x="1389.57" y="-189.21" font-family="sans-serif" font-size="16.00">GestaoEntregas</text>
</g>
<!-- GestaoLojas -->
<g id="node7" class="node">
<title>GestaoLojas</title>
<polygon fill="none" stroke="black" stroke-width="2" points="1674.52,-235.75 1668.18,-236.5 1661.8,-237.14 1655.43,-237.65 1649.07,-238.02 1642.76,-238.27 1636.52,-238.39 1630.37,-238.37 1624.34,-238.22 1618.45,-237.93 1612.71,-237.51 1607.16,-236.96 1601.8,-236.27 1596.65,-235.45 1591.73,-234.5 1587.05,-233.42 1582.62,-232.22 1578.46,-230.9 1574.57,-229.46 1570.95,-227.91 1567.62,-226.26 1564.58,-224.5 1561.83,-222.65 1559.38,-220.71 1557.21,-218.68 1555.34,-216.58 1553.75,-214.41 1552.45,-212.18 1551.42,-209.89 1550.67,-207.56 1550.19,-205.19 1549.97,-202.78 1549.99,-200.35 1550.26,-197.91 1550.77,-195.46 1551.5,-193.01 1552.45,-190.57 1553.61,-188.14 1554.96,-185.74 1556.51,-183.37 1558.24,-181.03 1560.14,-178.74 1562.21,-176.51 1564.43,-174.33 1566.81,-172.21 1569.33,-170.17 1571.99,-168.2 1574.78,-166.31 1577.7,-164.51 1580.75,-162.8 1583.91,-161.18 1587.19,-159.66 1590.59,-158.24 1594.09,-156.92 1597.7,-155.71 1601.42,-154.6 1605.23,-153.61 1609.15,-152.73 1613.17,-151.96 1617.28,-151.3 1621.48,-150.76 1625.78,-150.33 1630.16,-150.02 1634.62,-149.82 1639.16,-149.73 1643.78,-149.75 1648.46,-149.88 1653.2,-150.12 1658,-150.47 1662.85,-150.92 1667.73,-151.48 1672.63,-152.14 1677.56,-152.9 1682.49,-153.75 1687.41,-154.7 1692.31,-155.75 1697.17,-156.88 1701.98,-158.09 1706.73,-159.4 1711.39,-160.78 1715.95,-162.23 1720.39,-163.77 1724.7,-165.37 1728.85,-167.04 1732.83,-168.78 1736.62,-170.57 1740.21,-172.42 1743.56,-174.33 1746.67,-176.28 1749.52,-178.28 1752.08,-180.32 1754.36,-182.4 1756.33,-184.51 1757.97,-186.65 1759.28,-188.81 1760.25,-190.99 1760.85,-193.18 1761.1,-195.39 1760.98,-197.59 1760.48,-199.8 1759.6,-201.99 1758.35,-204.18 1756.72,-206.35 1754.71,-208.49 1752.34,-210.6 1749.6,-212.68 1746.5,-214.72 1743.06,-216.71 1739.29,-218.65 1735.19,-220.53 1730.79,-222.35 1726.11,-224.09 1721.16,-225.76 1715.96,-227.35 1710.53,-228.85 1704.9,-230.26 1699.09,-231.57 1693.12,-232.78 1687.02,-233.88 1680.81,-234.87 1674.52,-235.75"/>
<text text-anchor="middle" x="1649.57" y="-189.21" font-family="sans-serif" font-size="16.00">GestaoLojas</text>
</g>
<!-- GestaoPasseadores -->
<g id="node8" class="node">
<title>GestaoPasseadores</title>
<polygon fill="none" stroke="black" stroke-width="2" points="1779.82,-187.94 1780.76,-185.1 1782.07,-182.28 1783.77,-179.51 1785.84,-176.8 1788.28,-174.15 1791.08,-171.57 1794.23,-169.08 1797.73,-166.69 1801.56,-164.4 1805.72,-162.22 1810.19,-160.16 1814.96,-158.23 1820.02,-156.43 1825.35,-154.77 1830.94,-153.25 1836.77,-151.88 1842.83,-150.66 1849.1,-149.59 1855.57,-148.68 1862.21,-147.91 1869.01,-147.3 1875.95,-146.85 1883.02,-146.54 1890.18,-146.38 1897.43,-146.36 1904.73,-146.49 1912.08,-146.76 1919.46,-147.15 1926.84,-147.68 1934.2,-148.33 1941.52,-149.09 1948.78,-149.96 1955.97,-150.94 1963.07,-152.02 1970.05,-153.19 1976.89,-154.44 1983.58,-155.77 1990.1,-157.18 1996.43,-158.65 2002.56,-160.18 2008.46,-161.77 2014.12,-163.4 2019.53,-165.08 2024.67,-166.79 2029.53,-168.54 2034.09,-170.32 2038.34,-172.13 2042.27,-173.96 2045.87,-175.8 2049.13,-177.66 2052.04,-179.53 2054.58,-181.42 2056.77,-183.31 2058.57,-185.2 2060.01,-187.1 2061.06,-189.01 2061.73,-190.91 2062.01,-192.82 2061.9,-194.72 2061.4,-196.62 2060.52,-198.51 2059.26,-200.4 2057.61,-202.29 2055.59,-204.16 2053.19,-206.03 2050.43,-207.88 2047.32,-209.72 2043.85,-211.55 2040.05,-213.35 2035.91,-215.14 2031.46,-216.9 2026.7,-218.62 2021.65,-220.32 2016.32,-221.98 2010.72,-223.6 2004.88,-225.17 1998.8,-226.69 1992.5,-228.16 1986.01,-229.56 1979.33,-230.89 1972.5,-232.15 1965.52,-233.33 1958.41,-234.42 1951.2,-235.42 1943.9,-236.32 1936.54,-237.12 1929.14,-237.8 1921.71,-238.37 1914.28,-238.82 1906.86,-239.13 1899.49,-239.32 1892.17,-239.37 1884.93,-239.28 1877.79,-239.04 1870.77,-238.66 1863.88,-238.12 1857.15,-237.44 1850.6,-236.61 1844.24,-235.62 1838.1,-234.48 1832.18,-233.2 1826.5,-231.77 1821.09,-230.19 1815.95,-228.47 1811.09,-226.62 1806.55,-224.64 1802.31,-222.53 1798.4,-220.31 1794.83,-217.98 1791.61,-215.55 1788.74,-213.03 1786.23,-210.43 1784.09,-207.75 1782.33,-205.01 1780.95,-202.23 1779.95,-199.4 1779.33,-196.55 1779.11,-193.68 1779.27,-190.81 1779.82,-187.94"/>
<text text-anchor="middle" x="1920.57" y="-189.21" font-family="sans-serif" font-size="16.00">GestaoPasseadores</text>
</g>
<!-- GestaoVeterinarios -->
<g id="node9" class="node">
<title>GestaoVeterinarios</title>
<polygon fill="none" stroke="black" stroke-width="2" points="128.28,-234.25 119.69,-233.28 111.28,-232.19 103.1,-231.01 95.18,-229.72 87.54,-228.34 80.23,-226.87 73.27,-225.31 66.68,-223.67 60.5,-221.95 54.74,-220.17 49.42,-218.32 44.58,-216.41 40.21,-214.44 36.34,-212.43 32.97,-210.37 30.11,-208.28 27.78,-206.15 25.96,-204 24.66,-201.82 23.88,-199.63 23.61,-197.43 23.85,-195.22 24.58,-193.02 25.8,-190.82 27.48,-188.63 29.62,-186.45 32.2,-184.3 35.19,-182.17 38.58,-180.07 42.34,-178.01 46.45,-175.98 50.9,-174 55.65,-172.07 60.68,-170.19 65.96,-168.37 71.48,-166.61 77.21,-164.92 83.12,-163.29 89.19,-161.74 95.4,-160.26 101.72,-158.87 108.14,-157.56 114.63,-156.33 121.18,-155.2 127.76,-154.16 134.37,-153.22 140.98,-152.37 147.58,-151.63 154.15,-151 160.7,-150.47 167.2,-150.05 173.64,-149.73 180.02,-149.54 186.33,-149.45 192.56,-149.48 198.71,-149.63 204.77,-149.89 210.74,-150.27 216.61,-150.77 222.38,-151.38 228.05,-152.11 233.61,-152.95 239.05,-153.91 244.38,-154.97 249.6,-156.15 254.68,-157.44 259.64,-158.83 264.47,-160.32 269.16,-161.9 273.7,-163.59 278.09,-165.36 282.31,-167.22 286.36,-169.15 290.24,-171.17 293.92,-173.25 297.4,-175.4 300.66,-177.6 303.7,-179.86 306.49,-182.16 309.03,-184.5 311.3,-186.87 313.29,-189.27 314.98,-191.68 316.36,-194.1 317.41,-196.52 318.12,-198.93 318.47,-201.33 318.46,-203.71 318.06,-206.07 317.28,-208.38 316.09,-210.65 314.49,-212.87 312.48,-215.04 310.04,-217.13 307.18,-219.16 303.88,-221.11 300.16,-222.97 296.01,-224.75 291.44,-226.42 286.45,-228 281.05,-229.48 275.26,-230.84 269.08,-232.09 262.53,-233.22 255.63,-234.24 248.4,-235.13 240.87,-235.89 233.05,-236.53 224.98,-237.04 216.67,-237.42 208.17,-237.67 199.5,-237.8 190.7,-237.79 181.8,-237.65 172.83,-237.39 163.83,-237.01 154.84,-236.5 145.9,-235.86 137.03,-235.12 128.28,-234.25"/>
<text text-anchor="middle" x="177.57" y="-189.21" font-family="sans-serif" font-size="16.00">GestaoVeterinarios</text>
</g>
<!-- GestaoVeterinarios&#45;&gt;AgendamentoServicos -->
<g id="edge1" class="edge">
<title>GestaoVeterinarios&#45;&gt;AgendamentoServicos</title>
<path fill="none" stroke="black" stroke-width="2" d="M177.57,-149.37C177.57,-132.28 177.57,-112.54 177.57,-95.09"/>
<text text-anchor="middle" x="253.07" y="-116.63" font-family="sans-serif" font-size="12.00"> &#160;&#160;&#160;&#160;&#160;&#160;&#160;&#160;&#160;&#160;&#160;&#160;&#160;&#160;&#160;&#160;&#160;&#160;&#160;&#160;&#160;&#160;&#160;&#160;&#160;&#160;&#160;&#160;&#160;&#160;&#160;&#160;&#160;&#160;&#160;&#160;&#160;&#160;&#160;</text>
<polygon fill="white" stroke="transparent" points="170.57,-86.09 170.57,-103.09 184.57,-103.09 184.57,-86.09 170.57,-86.09"/>
<text text-anchor="start" x="172.57" y="-91.49" font-family="sans-serif" font-size="12.00">D</text>
<polygon fill="white" stroke="transparent" points="170.57,-140.37 170.57,-157.37 184.57,-157.37 184.57,-140.37 170.57,-140.37"/>
<text text-anchor="start" x="172.57" y="-145.77" font-family="sans-serif" font-size="12.00">U</text>
</g>
</g>
</svg>
