<svg width="2000px" height="142px"
 viewBox="0.00 0.00 1476.65 105.43" xmlns="http://www.w3.org/2000/svg" xmlns:xlink="http://www.w3.org/1999/xlink">
<g id="graph0" class="graph" transform="scale(1.0 1.0) rotate(0) translate(4 101.43)">
<title>ContextMapGraph</title>
<polygon fill="white" stroke="transparent" points="-4,4 -4,-101.43 1472.65,-101.43 1472.65,4 -4,4"/>
<!-- AgendamentoContext -->
<g id="node1" class="node">
<title>AgendamentoContext</title>
<polygon fill="none" stroke="black" stroke-width="2" points="85.59,-84.72 77.04,-83.12 68.8,-81.45 60.89,-79.68 53.35,-77.84 46.21,-75.93 39.49,-73.96 33.23,-71.93 27.46,-69.86 22.19,-67.74 17.44,-65.58 13.24,-63.4 9.59,-61.19 6.52,-58.97 4.03,-56.73 2.13,-54.5 0.82,-52.26 0.1,-50.04 -0.02,-47.82 0.44,-45.63 1.48,-43.46 3.09,-41.32 5.25,-39.21 7.96,-37.14 11.19,-35.12 14.92,-33.13 19.13,-31.2 23.8,-29.32 28.91,-27.5 34.42,-25.73 40.31,-24.03 46.55,-22.39 53.11,-20.82 59.97,-19.32 67.08,-17.89 74.43,-16.54 81.97,-15.26 89.69,-14.06 97.55,-12.94 105.52,-11.91 113.57,-10.96 121.68,-10.09 129.82,-9.31 137.96,-8.63 146.09,-8.03 154.18,-7.53 162.2,-7.12 170.15,-6.81 178,-6.59 185.73,-6.48 193.33,-6.46 200.79,-6.55 208.1,-6.74 215.23,-7.03 222.2,-7.43 228.98,-7.93 235.56,-8.54 241.96,-9.25 248.15,-10.07 254.13,-10.99 259.9,-12.01 265.46,-13.14 270.8,-14.38 275.92,-15.71 280.82,-17.14 285.49,-18.67 289.94,-20.29 294.16,-22.01 298.14,-23.81 301.89,-25.69 305.39,-27.66 308.65,-29.7 311.66,-31.81 314.41,-33.98 316.9,-36.21 319.13,-38.5 321.07,-40.83 322.73,-43.2 324.1,-45.6 325.16,-48.03 325.91,-50.48 326.35,-52.93 326.45,-55.39 326.21,-57.84 325.63,-60.28 324.68,-62.69 323.37,-65.07 321.68,-67.41 319.61,-69.7 317.15,-71.93 314.29,-74.11 311.04,-76.2 307.38,-78.22 303.31,-80.15 298.84,-81.99 293.96,-83.72 288.68,-85.35 283.01,-86.86 276.94,-88.26 270.5,-89.53 263.69,-90.67 256.52,-91.68 249.02,-92.56 241.19,-93.29 233.06,-93.89 224.66,-94.34 216,-94.65 207.11,-94.82 198.02,-94.84 188.76,-94.72 179.36,-94.46 169.86,-94.06 160.29,-93.52 150.69,-92.85 141.08,-92.04 131.51,-91.11 122.02,-90.06 112.65,-88.89 103.43,-87.6 94.39,-86.21 85.59,-84.72"/>
<text text-anchor="middle" x="175.02" y="-44.92" font-family="sans-serif" font-size="16.00">AgendamentoContext</text>
</g>
<!-- ConselhoFederalVeterinariaContext -->
<g id="node2" class="node">
<title>ConselhoFederalVeterinariaContext</title>
<polygon fill="none" stroke="black" stroke-width="2" points="835.36,-40.83 838.32,-43.64 840.63,-46.46 842.28,-49.27 843.25,-52.06 843.54,-54.82 843.15,-57.55 842.06,-60.22 840.29,-62.83 837.83,-65.37 834.68,-67.84 830.85,-70.22 826.35,-72.5 821.2,-74.69 815.39,-76.76 808.96,-78.72 801.92,-80.56 794.28,-82.28 786.08,-83.88 777.33,-85.34 768.07,-86.68 758.32,-87.88 748.11,-88.94 737.48,-89.88 726.46,-90.68 715.08,-91.35 703.38,-91.89 691.41,-92.3 679.18,-92.59 666.76,-92.75 654.17,-92.8 641.46,-92.73 628.67,-92.55 615.83,-92.26 602.99,-91.87 590.19,-91.38 577.47,-90.8 564.87,-90.13 552.42,-89.37 540.17,-88.53 528.15,-87.62 516.39,-86.63 504.94,-85.58 493.81,-84.46 483.05,-83.28 472.68,-82.04 462.74,-80.75 453.24,-79.4 444.21,-78.01 435.67,-76.56 427.65,-75.07 420.16,-73.54 413.21,-71.96 406.84,-70.35 401.04,-68.69 395.82,-67 391.2,-65.27 387.19,-63.51 383.78,-61.71 380.99,-59.87 378.81,-58 377.24,-56.11 376.29,-54.18 375.95,-52.22 376.21,-50.24 377.07,-48.23 378.52,-46.21 380.56,-44.16 383.17,-42.1 386.35,-40.02 390.08,-37.94 394.34,-35.85 399.14,-33.76 404.44,-31.67 410.25,-29.6 416.53,-27.54 423.28,-25.5 430.47,-23.49 438.09,-21.52 446.13,-19.59 454.55,-17.7 463.35,-15.88 472.5,-14.11 481.98,-12.42 491.77,-10.81 501.84,-9.29 512.18,-7.86 522.77,-6.53 533.57,-5.31 544.57,-4.21 555.74,-3.24 567.06,-2.39 578.5,-1.68 590.03,-1.11 601.64,-0.69 613.28,-0.43 624.95,-0.31 636.59,-0.36 648.2,-0.57 659.74,-0.94 671.19,-1.47 682.5,-2.17 693.66,-3.03 704.64,-4.05 715.4,-5.23 725.92,-6.56 736.16,-8.05 746.1,-9.69 755.71,-11.46 764.96,-13.38 773.82,-15.41 782.26,-17.57 790.26,-19.84 797.79,-22.22 804.83,-24.68 811.34,-27.23 817.32,-29.85 822.73,-32.53 827.55,-35.26 831.77,-38.03 835.36,-40.83"/>
<text text-anchor="middle" x="606.02" y="-44.92" font-family="sans-serif" font-size="16.00">ConselhoFederalVeterinariaContext</text>
</g>
<!-- ServicosContext -->
<g id="node3" class="node">
<title>ServicosContext</title>
<polygon fill="none" stroke="black" stroke-width="2" points="1088.16,-78.04 1082.84,-80.22 1077.29,-82.31 1071.55,-84.3 1065.62,-86.17 1059.53,-87.92 1053.31,-89.55 1046.97,-91.04 1040.54,-92.4 1034.04,-93.6 1027.48,-94.66 1020.9,-95.56 1014.31,-96.3 1007.73,-96.89 1001.18,-97.3 994.67,-97.56 988.23,-97.65 981.87,-97.58 975.6,-97.34 969.45,-96.94 963.41,-96.38 957.52,-95.67 951.77,-94.81 946.18,-93.8 940.76,-92.66 935.52,-91.37 930.46,-89.96 925.59,-88.43 920.93,-86.79 916.47,-85.04 912.23,-83.19 908.2,-81.25 904.39,-79.23 900.81,-77.13 897.46,-74.98 894.34,-72.77 891.46,-70.51 888.81,-68.21 886.41,-65.89 884.25,-63.54 882.34,-61.18 880.67,-58.82 879.26,-56.46 878.11,-54.11 877.21,-51.77 876.57,-49.46 876.19,-47.17 876.07,-44.92 876.23,-42.71 876.65,-40.54 877.34,-38.43 878.3,-36.36 879.54,-34.35 881.06,-32.4 882.85,-30.51 884.92,-28.68 887.28,-26.92 889.91,-25.23 892.81,-23.61 896,-22.06 899.46,-20.58 903.19,-19.17 907.19,-17.83 911.45,-16.57 915.97,-15.38 920.75,-14.27 925.76,-13.23 931.01,-12.27 936.49,-11.38 942.18,-10.57 948.07,-9.83 954.15,-9.18 960.41,-8.6 966.82,-8.1 973.37,-7.68 980.05,-7.34 986.83,-7.09 993.69,-6.92 1000.62,-6.83 1007.58,-6.83 1014.57,-6.93 1021.55,-7.11 1028.51,-7.38 1035.41,-7.75 1042.24,-8.21 1048.97,-8.77 1055.57,-9.43 1062.02,-10.18 1068.3,-11.04 1074.38,-12 1080.24,-13.06 1085.86,-14.23 1091.21,-15.5 1096.28,-16.86 1101.04,-18.34 1105.47,-19.91 1109.56,-21.58 1113.29,-23.34 1116.65,-25.2 1119.62,-27.15 1122.19,-29.19 1124.36,-31.31 1126.11,-33.5 1127.43,-35.77 1128.33,-38.11 1128.8,-40.51 1128.85,-42.96 1128.46,-45.45 1127.65,-47.98 1126.41,-50.55 1124.77,-53.13 1122.71,-55.73 1120.27,-58.32 1117.44,-60.92 1114.24,-63.49 1110.68,-66.04 1106.79,-68.55 1102.57,-71.02 1098.04,-73.43 1093.23,-75.77 1088.16,-78.04"/>
<text text-anchor="middle" x="995.02" y="-44.92" font-family="sans-serif" font-size="16.00">ServicosContext</text>
</g>
<!-- VeterinariosContext -->
<g id="node4" class="node">
<title>VeterinariosContext</title>
<polygon fill="none" stroke="black" stroke-width="2" points="1374.5,-87.58 1366.17,-88.93 1357.71,-90.16 1349.15,-91.28 1340.52,-92.27 1331.87,-93.12 1323.21,-93.85 1314.59,-94.43 1306.03,-94.88 1297.57,-95.17 1289.22,-95.33 1281.03,-95.33 1273.02,-95.19 1265.2,-94.9 1257.61,-94.47 1250.26,-93.88 1243.17,-93.16 1236.36,-92.29 1229.85,-91.28 1223.65,-90.14 1217.77,-88.86 1212.21,-87.46 1206.99,-85.94 1202.12,-84.31 1197.59,-82.56 1193.42,-80.72 1189.6,-78.77 1186.12,-76.74 1183,-74.63 1180.23,-72.45 1177.8,-70.21 1175.71,-67.9 1173.96,-65.56 1172.54,-63.17 1171.44,-60.75 1170.66,-58.31 1170.19,-55.86 1170.02,-53.4 1170.14,-50.95 1170.56,-48.5 1171.26,-46.08 1172.23,-43.68 1173.48,-41.32 1174.99,-39 1176.76,-36.72 1178.78,-34.5 1181.06,-32.34 1183.58,-30.24 1186.34,-28.21 1189.34,-26.26 1192.58,-24.38 1196.05,-22.59 1199.76,-20.89 1203.69,-19.27 1207.86,-17.75 1212.25,-16.32 1216.86,-14.99 1221.7,-13.75 1226.76,-12.62 1232.03,-11.58 1237.52,-10.64 1243.22,-9.81 1249.12,-9.08 1255.23,-8.45 1261.52,-7.91 1268,-7.48 1274.66,-7.15 1281.48,-6.92 1288.46,-6.79 1295.58,-6.76 1302.83,-6.82 1310.19,-6.97 1317.64,-7.23 1325.18,-7.57 1332.77,-8.01 1340.4,-8.53 1348.05,-9.15 1355.69,-9.86 1363.29,-10.65 1370.84,-11.53 1378.31,-12.49 1385.66,-13.54 1392.88,-14.67 1399.93,-15.87 1406.78,-17.16 1413.42,-18.53 1419.8,-19.97 1425.9,-21.48 1431.7,-23.06 1437.16,-24.72 1442.26,-26.44 1446.98,-28.22 1451.29,-30.07 1455.17,-31.97 1458.6,-33.93 1461.56,-35.94 1464.03,-38 1466,-40.11 1467.46,-42.25 1468.38,-44.43 1468.78,-46.64 1468.64,-48.87 1467.95,-51.13 1466.72,-53.4 1464.95,-55.67 1462.65,-57.95 1459.81,-60.22 1456.46,-62.48 1452.61,-64.72 1448.26,-66.94 1443.44,-69.13 1438.17,-71.27 1432.46,-73.37 1426.35,-75.41 1419.86,-77.39 1413.01,-79.3 1405.83,-81.14 1398.37,-82.89 1390.63,-84.55 1382.67,-86.12 1374.5,-87.58"/>
<text text-anchor="middle" x="1308.02" y="-44.92" font-family="sans-serif" font-size="16.00">VeterinariosContext</text>
</g>
</g>
</svg>
