<svg width="2000px" height="678px"
 viewBox="0.00 0.00 738.00 250.00" xmlns="http://www.w3.org/2000/svg" xmlns:xlink="http://www.w3.org/1999/xlink">
<g id="graph0" class="graph" transform="scale(1.0 1.0) rotate(0) translate(4 246.18)">
<title>ContextMapGraph</title>
<polygon fill="white" stroke="none" points="-4,4 -4,-246.18 733.63,-246.18 733.63,4 -4,4"/>
<!-- AgendamentoContext -->
<g id="node1" class="node">
<title>AgendamentoContext</title>
<polygon fill="none" stroke="black" stroke-width="2" points="167.11,-152.21 176.13,-152.56 185.04,-153.03 193.81,-153.61 202.4,-154.32 210.78,-155.14 218.91,-156.08 226.76,-157.12 234.31,-158.27 241.52,-159.53 248.36,-160.89 254.82,-162.34 260.88,-163.89 266.5,-165.53 271.68,-167.25 276.41,-169.05 280.66,-170.92 284.43,-172.87 287.72,-174.88 290.52,-176.95 292.83,-179.07 294.66,-181.24 295.99,-183.45 296.85,-185.69 297.23,-187.97 297.15,-190.27 296.62,-192.58 295.66,-194.91 294.27,-197.24 292.47,-199.57 290.29,-201.9 287.74,-204.2 284.84,-206.49 281.61,-208.76 278.07,-210.99 274.24,-213.18 270.14,-215.33 265.79,-217.43 261.22,-219.47 256.44,-221.45 251.47,-223.37 246.33,-225.21 241.04,-226.98 235.62,-228.67 230.08,-230.27 224.44,-231.78 218.71,-233.19 212.9,-234.51 207.03,-235.72 201.11,-236.83 195.15,-237.83 189.15,-238.72 183.12,-239.49 177.08,-240.15 171.03,-240.69 164.97,-241.11 158.9,-241.41 152.85,-241.59 146.79,-241.64 140.75,-241.58 134.73,-241.39 128.72,-241.07 122.74,-240.64 116.78,-240.08 110.86,-239.4 104.97,-238.61 99.13,-237.7 93.34,-236.68 87.61,-235.55 81.94,-234.31 76.34,-232.97 70.84,-231.52 65.42,-229.98 60.12,-228.35 54.94,-226.63 49.89,-224.82 45,-222.94 40.27,-220.98 35.73,-218.96 31.39,-216.88 27.27,-214.74 23.39,-212.54 19.76,-210.31 16.41,-208.03 13.36,-205.73 10.63,-203.4 8.23,-201.05 6.18,-198.69 4.5,-196.32 3.22,-193.95 2.33,-191.6 1.87,-189.25 1.84,-186.93 2.26,-184.64 3.13,-182.37 4.47,-180.15 6.28,-177.98 8.57,-175.86 11.33,-173.79 14.57,-171.79 18.28,-169.86 22.47,-168.01 27.12,-166.23 32.22,-164.54 37.76,-162.94 43.72,-161.44 50.09,-160.03 56.85,-158.73 63.97,-157.52 71.43,-156.43 79.21,-155.45 87.27,-154.59 95.58,-153.84 104.12,-153.21 112.84,-152.7 121.72,-152.31 130.71,-152.05 139.78,-151.9 148.9,-151.88 158.02,-151.98 167.11,-152.21"/>
<text xml:space="preserve" text-anchor="middle" x="148.61" y="-191.7" font-family="sans-serif" font-size="16.00">AgendamentoContext</text>
</g>
<!-- ServicoContext -->
<g id="node2" class="node">
<title>ServicoContext</title>
<polygon fill="none" stroke="black" stroke-width="2" points="167.68,-94.03 160.89,-94.6 154.08,-95.05 147.28,-95.37 140.54,-95.55 133.86,-95.61 127.28,-95.53 120.82,-95.33 114.5,-94.98 108.35,-94.51 102.39,-93.9 96.65,-93.16 91.13,-92.3 85.85,-91.3 80.84,-90.18 76.1,-88.94 71.64,-87.58 67.48,-86.11 63.63,-84.53 60.09,-82.84 56.87,-81.06 53.97,-79.18 51.39,-77.21 49.13,-75.16 47.19,-73.03 45.57,-70.84 44.27,-68.58 43.27,-66.27 42.58,-63.91 42.18,-61.52 42.07,-59.09 42.24,-56.64 42.68,-54.17 43.37,-51.7 44.31,-49.22 45.49,-46.75 46.9,-44.3 48.52,-41.87 50.35,-39.47 52.38,-37.11 54.59,-34.79 56.97,-32.52 59.52,-30.31 62.22,-28.17 65.08,-26.09 68.07,-24.09 71.2,-22.17 74.45,-20.34 77.83,-18.6 81.31,-16.95 84.91,-15.41 88.62,-13.96 92.42,-12.62 96.33,-11.39 100.33,-10.27 104.42,-9.27 108.6,-8.38 112.87,-7.6 117.22,-6.95 121.65,-6.41 126.17,-5.99 130.75,-5.69 135.41,-5.5 140.14,-5.44 144.93,-5.49 149.78,-5.65 154.68,-5.93 159.63,-6.32 164.61,-6.83 169.63,-7.44 174.67,-8.16 179.72,-8.98 184.77,-9.91 189.81,-10.93 194.82,-12.05 199.8,-13.26 204.72,-14.56 209.58,-15.95 214.35,-17.42 219.02,-18.97 223.57,-20.59 227.99,-22.29 232.25,-24.06 236.34,-25.88 240.23,-27.77 243.92,-29.71 247.37,-31.71 250.58,-33.75 253.52,-35.83 256.18,-37.95 258.54,-40.11 260.58,-42.29 262.29,-44.5 263.67,-46.72 264.68,-48.96 265.33,-51.21 265.6,-53.45 265.49,-55.7 264.99,-57.94 264.1,-60.17 262.81,-62.37 261.12,-64.55 259.05,-66.71 256.58,-68.82 253.72,-70.9 250.49,-72.93 246.9,-74.9 242.94,-76.82 238.65,-78.67 234.03,-80.46 229.1,-82.16 223.89,-83.79 218.4,-85.34 212.66,-86.79 206.71,-88.14 200.55,-89.4 194.22,-90.55 187.74,-91.6 181.14,-92.53 174.45,-93.34 167.68,-94.03"/>
<text xml:space="preserve" text-anchor="middle" x="148.61" y="-44.73" font-family="sans-serif" font-size="16.00">ServicoContext</text>
</g>
<!-- AgendamentoContext&#45;&gt;ServicoContext -->
<g id="edge1" class="edge">
<title>AgendamentoContext&#45;&gt;ServicoContext</title>
<path fill="none" stroke="black" stroke-width="2" d="M148.61,-151.49C148.61,-133.75 148.61,-113.35 148.61,-95.57"/>
<text xml:space="preserve" text-anchor="middle" x="223.61" y="-121.96" font-family="sans-serif" font-size="12.00"> &#160;&#160;&#160;&#160;&#160;&#160;&#160;&#160;&#160;&#160;&#160;&#160;&#160;&#160;&#160;&#160;&#160;&#160;&#160;&#160;&#160;&#160;&#160;&#160;&#160;&#160;&#160;&#160;&#160;&#160;&#160;&#160;&#160;&#160;&#160;&#160;&#160;&#160;&#160;</text>
<polygon fill="white" stroke="none" points="142.49,-85.69 142.49,-105.44 154.74,-105.44 154.74,-85.69 142.49,-85.69"/>
<text xml:space="preserve" text-anchor="start" x="144.49" y="-92.04" font-family="sans-serif" font-size="12.00">D</text>
<polygon fill="white" stroke="none" points="117.11,-140.61 117.11,-162.36 130.61,-162.36 130.61,-140.61 117.11,-140.61"/>
<polyline fill="none" stroke="black" points="130.61,-140.61 130.61,-162.36"/>
<text xml:space="preserve" text-anchor="start" x="120.11" y="-147.96" font-family="sans-serif" font-size="12.00">U</text>
<polygon fill="white" stroke="none" points="130.61,-140.61 130.61,-162.36 180.11,-162.36 180.11,-140.61 130.61,-140.61"/>
<polygon fill="none" stroke="black" points="130.61,-140.61 130.61,-162.36 180.11,-162.36 180.11,-140.61 130.61,-140.61"/>
<text xml:space="preserve" text-anchor="start" x="133.61" y="-147.96" font-family="sans-serif" font-size="12.00">OHS, PL</text>
</g>
<!-- VeterinariosContext -->
<g id="node3" class="node">
<title>VeterinariosContext</title>
<polygon fill="none" stroke="black" stroke-width="2" points="377.78,-19.35 383.39,-17.16 389.23,-15.06 395.28,-13.08 401.5,-11.21 407.89,-9.46 414.41,-7.84 421.04,-6.36 427.76,-5.02 434.55,-3.83 441.38,-2.8 448.24,-1.92 455.09,-1.21 461.93,-0.66 468.73,-0.27 475.47,-0.05 482.14,0 488.71,-0.12 495.18,-0.4 501.53,-0.84 507.74,-1.44 513.8,-2.21 519.7,-3.12 525.43,-4.18 530.98,-5.39 536.34,-6.72 541.5,-8.19 546.45,-9.78 551.19,-11.49 555.71,-13.3 560.01,-15.21 564.08,-17.21 567.91,-19.29 571.51,-21.45 574.87,-23.67 577.98,-25.94 580.85,-28.26 583.47,-30.61 585.83,-33 587.95,-35.4 589.8,-37.81 591.4,-40.23 592.74,-42.65 593.82,-45.05 594.63,-47.44 595.18,-49.8 595.45,-52.13 595.45,-54.42 595.18,-56.67 594.64,-58.88 593.81,-61.03 592.71,-63.13 591.33,-65.17 589.66,-67.15 587.71,-69.06 585.47,-70.91 582.95,-72.68 580.14,-74.39 577.05,-76.03 573.68,-77.59 570.03,-79.07 566.09,-80.48 561.89,-81.82 557.41,-83.08 552.68,-84.26 547.68,-85.36 542.44,-86.39 536.96,-87.34 531.25,-88.21 525.33,-89 519.19,-89.71 512.87,-90.34 506.37,-90.89 499.72,-91.36 492.92,-91.74 486,-92.05 478.97,-92.26 471.86,-92.39 464.69,-92.44 457.49,-92.39 450.26,-92.25 443.05,-92.03 435.87,-91.7 428.75,-91.29 421.71,-90.77 414.78,-90.16 407.98,-89.45 401.35,-88.64 394.9,-87.72 388.66,-86.71 382.65,-85.59 376.9,-84.37 371.43,-83.04 366.26,-81.61 361.41,-80.09 356.91,-78.46 352.76,-76.73 348.99,-74.91 345.61,-72.99 342.64,-70.99 340.08,-68.9 337.95,-66.72 336.25,-64.48 335,-62.16 334.19,-59.77 333.82,-57.33 333.9,-54.83 334.43,-52.29 335.4,-49.72 336.81,-47.11 338.64,-44.49 340.9,-41.86 343.56,-39.23 346.62,-36.61 350.06,-34 353.87,-31.43 358.03,-28.89 362.52,-26.41 367.32,-23.98 372.41,-21.63 377.78,-19.35"/>
<text xml:space="preserve" text-anchor="middle" x="472.61" y="-44.73" font-family="sans-serif" font-size="16.00">VeterinariosContext</text>
</g>
<!-- AgendamentoContext&#45;&gt;VeterinariosContext -->
<g id="edge2" class="edge">
<title>AgendamentoContext&#45;&gt;VeterinariosContext</title>
<path fill="none" stroke="black" stroke-width="2" d="M241.88,-159.15C262.01,-150.91 283.11,-142.04 302.61,-133.36 334.09,-119.36 368.35,-102.95 397.8,-88.47"/>
<text xml:space="preserve" text-anchor="middle" x="410.52" y="-121.96" font-family="sans-serif" font-size="12.00"> &#160;&#160;&#160;&#160;&#160;&#160;&#160;&#160;&#160;&#160;&#160;&#160;&#160;&#160;&#160;&#160;&#160;&#160;&#160;&#160;&#160;&#160;&#160;&#160;&#160;&#160;&#160;&#160;&#160;&#160;&#160;&#160;&#160;&#160;&#160;&#160;&#160;&#160;&#160;</text>
<polygon fill="white" stroke="none" points="391.68,-78.6 391.68,-98.35 403.93,-98.35 403.93,-78.6 391.68,-78.6"/>
<text xml:space="preserve" text-anchor="start" x="393.68" y="-84.95" font-family="sans-serif" font-size="12.00">D</text>
<polygon fill="white" stroke="none" points="210.38,-148.27 210.38,-170.02 223.88,-170.02 223.88,-148.27 210.38,-148.27"/>
<polyline fill="none" stroke="black" points="223.88,-148.27 223.88,-170.02"/>
<text xml:space="preserve" text-anchor="start" x="213.38" y="-155.62" font-family="sans-serif" font-size="12.00">U</text>
<polygon fill="white" stroke="none" points="223.88,-148.27 223.88,-170.02 273.38,-170.02 273.38,-148.27 223.88,-148.27"/>
<polygon fill="none" stroke="black" points="223.88,-148.27 223.88,-170.02 273.38,-170.02 273.38,-148.27 223.88,-148.27"/>
<text xml:space="preserve" text-anchor="start" x="226.88" y="-155.62" font-family="sans-serif" font-size="12.00">OHS, PL</text>
</g>
<!-- ConselhoFederalMedVetContext -->
<g id="node4" class="node">
<title>ConselhoFederalMedVetContext</title>
<polygon fill="none" stroke="black" stroke-width="2" points="501.69,-152.09 513.94,-151.72 526.17,-151.48 538.34,-151.36 550.39,-151.37 562.27,-151.51 573.95,-151.78 585.37,-152.18 596.49,-152.71 607.28,-153.37 617.69,-154.15 627.69,-155.06 637.25,-156.08 646.33,-157.23 654.91,-158.5 662.97,-159.87 670.49,-161.36 677.45,-162.95 683.83,-164.65 689.63,-166.43 694.83,-168.31 699.44,-170.27 703.45,-172.31 706.86,-174.42 709.68,-176.6 711.91,-178.84 713.57,-181.13 714.66,-183.46 715.2,-185.83 715.2,-188.23 714.69,-190.66 713.67,-193.1 712.17,-195.55 710.21,-198 707.81,-200.44 704.99,-202.87 701.77,-205.27 698.17,-207.65 694.22,-209.99 689.93,-212.29 685.32,-214.53 680.42,-216.72 675.24,-218.85 669.81,-220.91 664.13,-222.9 658.22,-224.8 652.1,-226.63 645.78,-228.36 639.27,-229.99 632.59,-231.53 625.74,-232.97 618.73,-234.3 611.58,-235.53 604.28,-236.64 596.84,-237.63 589.27,-238.52 581.58,-239.28 573.77,-239.93 565.84,-240.45 557.81,-240.86 549.66,-241.15 541.42,-241.31 533.09,-241.36 524.67,-241.28 516.17,-241.09 507.6,-240.78 498.97,-240.36 490.29,-239.82 481.58,-239.17 472.84,-238.41 464.1,-237.55 455.36,-236.57 446.66,-235.5 438,-234.33 429.42,-233.07 420.93,-231.71 412.56,-230.27 404.34,-228.74 396.29,-227.13 388.44,-225.45 380.83,-223.7 373.48,-221.87 366.43,-219.99 359.7,-218.04 353.33,-216.04 347.35,-214 341.8,-211.9 336.7,-209.77 332.08,-207.61 327.98,-205.41 324.42,-203.19 321.42,-200.96 319.02,-198.71 317.24,-196.45 316.09,-194.18 315.6,-191.92 315.77,-189.67 316.63,-187.43 318.17,-185.22 320.41,-183.02 323.35,-180.86 326.98,-178.73 331.31,-176.65 336.32,-174.61 342,-172.62 348.33,-170.69 355.31,-168.83 362.89,-167.03 371.07,-165.31 379.8,-163.67 389.06,-162.11 398.81,-160.64 409.01,-159.26 419.63,-157.99 430.61,-156.81 441.92,-155.74 453.51,-154.77 465.34,-153.93 477.34,-153.19 489.47,-152.58 501.69,-152.09"/>
<text xml:space="preserve" text-anchor="middle" x="522.61" y="-191.7" font-family="sans-serif" font-size="16.00">ConselhoFederalMedVetContext</text>
</g>
<!-- ConselhoFederalMedVetContext&#45;&gt;VeterinariosContext -->
<g id="edge3" class="edge">
<title>ConselhoFederalMedVetContext&#45;&gt;VeterinariosContext</title>
<path fill="none" stroke="black" stroke-width="2" d="M507.34,-151.49C500.85,-132.67 493.32,-110.85 486.94,-92.34"/>
<text xml:space="preserve" text-anchor="middle" x="575.61" y="-121.96" font-family="sans-serif" font-size="12.00"> &#160;&#160;&#160;&#160;&#160;&#160;&#160;&#160;&#160;&#160;&#160;&#160;&#160;&#160;&#160;&#160;&#160;&#160;&#160;&#160;&#160;&#160;&#160;&#160;&#160;&#160;&#160;&#160;&#160;&#160;&#160;&#160;&#160;&#160;&#160;&#160;&#160;&#160;&#160;</text>
<polygon fill="white" stroke="none" points="466.32,-81.47 466.32,-103.22 480.57,-103.22 480.57,-81.47 466.32,-81.47"/>
<polyline fill="none" stroke="black" points="480.57,-81.47 480.57,-103.22"/>
<text xml:space="preserve" text-anchor="start" x="469.32" y="-88.82" font-family="sans-serif" font-size="12.00">D</text>
<polygon fill="white" stroke="none" points="480.57,-81.47 480.57,-103.22 507.57,-103.22 507.57,-81.47 480.57,-81.47"/>
<polygon fill="none" stroke="black" points="480.57,-81.47 480.57,-103.22 507.57,-103.22 507.57,-81.47 480.57,-81.47"/>
<text xml:space="preserve" text-anchor="start" x="483.57" y="-88.82" font-family="sans-serif" font-size="12.00">ACL</text>
<polygon fill="white" stroke="none" points="501.59,-141.61 501.59,-161.36 513.09,-161.36 513.09,-141.61 501.59,-141.61"/>
<text xml:space="preserve" text-anchor="start" x="503.59" y="-147.96" font-family="sans-serif" font-size="12.00">U</text>
</g>
</g>
</svg>
